<svg width="28" height="29" viewBox="0 0 28 29" fill="none" xmlns="http://www.w3.org/2000/svg">
<path d="M2.04024 22.6983L12.768 3.09642C12.8888 2.8752 13.0669 2.69058 13.2837 2.56197C13.5005 2.43335 13.7479 2.36548 14 2.36548C14.252 2.36548 14.4994 2.43335 14.7162 2.56197C14.933 2.69058 15.1112 2.8752 15.232 3.09642L25.9597 22.6983C26.0765 22.9118 26.1357 23.152 26.1313 23.3953C26.127 23.6387 26.0593 23.8766 25.9349 24.0858C25.8105 24.295 25.6338 24.4681 25.4221 24.5881C25.2104 24.7082 24.9711 24.771 24.7277 24.7703H3.27224C3.02888 24.771 2.78956 24.7082 2.57787 24.5881C2.36618 24.4681 2.18943 24.295 2.06506 24.0858C1.94069 23.8766 1.87299 23.6387 1.86863 23.3953C1.86428 23.152 1.92342 22.9118 2.04024 22.6983ZM15.4933 15.4332L16.2456 10.9196C16.2678 10.786 16.2606 10.6491 16.2246 10.5185C16.1886 10.3879 16.1246 10.2667 16.037 10.1633C15.9495 10.0599 15.8404 9.97684 15.7175 9.91984C15.5946 9.86284 15.4608 9.83329 15.3253 9.83322H12.6746C12.5392 9.83329 12.4053 9.86284 12.2824 9.91984C12.1595 9.97684 12.0505 10.0599 11.9629 10.1633C11.8753 10.2667 11.8113 10.3879 11.7753 10.5185C11.7393 10.6491 11.7321 10.786 11.7544 10.9196L12.5066 15.4332H15.4933ZM16.0533 18.9799C16.0533 18.4353 15.837 17.913 15.4519 17.528C15.0668 17.1429 14.5445 16.9266 14 16.9266C13.4554 16.9266 12.9331 17.1429 12.548 17.528C12.163 17.913 11.9466 18.4353 11.9466 18.9799C11.9466 19.5245 12.163 20.0467 12.548 20.4318C12.9331 20.8169 13.4554 21.0332 14 21.0332C14.5445 21.0332 15.0668 20.8169 15.4519 20.4318C15.837 20.0467 16.0533 19.5245 16.0533 18.9799Z" fill="#EB5757"/>
</svg>
