<svg xmlns="http://www.w3.org/2000/svg" xmlns:xlink="http://www.w3.org/1999/xlink" width="320" zoomAndPan="magnify" viewBox="0 0 240 98.999996" height="132" preserveAspectRatio="xMidYMid meet" version="1.0"><defs><g/><clipPath id="69dd3315a0"><path d="M 24 36.089844 L 27 36.089844 L 27 44 L 24 44 Z M 24 36.089844 " clip-rule="nonzero"/></clipPath><clipPath id="35a2d9f28b"><path d="M 36 36.089844 L 39 36.089844 L 39 43 L 36 43 Z M 36 36.089844 " clip-rule="nonzero"/></clipPath><clipPath id="94bd1e4760"><path d="M 15.417969 43 L 49 43 L 49 63 L 15.417969 63 Z M 15.417969 43 " clip-rule="nonzero"/></clipPath></defs><g clip-path="url(#69dd3315a0)"><path fill="#000000" d="M 24.097656 37.3125 C 23.9375 38.179688 24.039062 39.148438 24.050781 40.035156 C 24.0625 40.96875 24.097656 41.878906 24.175781 42.804688 C 24.257812 43.691406 25.753906 43.816406 25.9375 42.929688 C 26.152344 41.925781 26.257812 40.992188 26.234375 39.976562 C 26.199219 38.984375 26.164062 37.914062 25.789062 36.988281 C 25.640625 36.632812 25.183594 36.4375 24.828125 36.503906 C 24.40625 36.585938 24.175781 36.921875 24.097656 37.3125 Z M 24.097656 37.3125 " fill-opacity="1" fill-rule="nonzero"/></g><g clip-path="url(#35a2d9f28b)"><path fill="#000000" d="M 36.519531 37.011719 C 36.175781 37.707031 36.3125 38.730469 36.347656 39.492188 C 36.382812 40.382812 36.484375 41.199219 36.714844 42.054688 C 37.023438 43.21875 38.484375 43.046875 38.714844 41.9375 C 38.910156 41.015625 38.921875 40.171875 38.816406 39.238281 C 38.726562 38.398438 38.644531 37.394531 38.109375 36.703125 C 37.628906 36.089844 36.804688 36.425781 36.519531 37.011719 Z M 36.519531 37.011719 " fill-opacity="1" fill-rule="nonzero"/></g><g clip-path="url(#94bd1e4760)"><path fill="#000000" d="M 15.480469 51.648438 C 15.445312 53.390625 16.3125 55.027344 17.273438 56.425781 C 18.222656 57.796875 19.433594 58.996094 20.792969 59.953125 C 23.386719 61.777344 26.566406 62.8125 29.71875 62.953125 C 32.917969 63.089844 36.199219 62.421875 39.011719 60.851562 C 41.8125 59.296875 44.175781 57 45.902344 54.277344 C 46.851562 52.78125 47.617188 51.140625 48.15625 49.445312 C 48.441406 48.570312 48.667969 47.660156 48.816406 46.746094 C 48.953125 45.847656 49.136719 44.820312 48.851562 43.945312 C 48.578125 43.113281 47.570312 43 47.183594 43.816406 C 46.875 44.476562 46.839844 45.203125 46.691406 45.917969 C 46.542969 46.621094 46.382812 47.324219 46.175781 48.015625 C 45.789062 49.34375 45.261719 50.632812 44.589844 51.832031 C 43.230469 54.265625 41.355469 56.445312 39.023438 57.992188 C 34.40625 61.039062 28.164062 61.453125 23.226562 58.890625 C 21.789062 58.144531 20.449219 57.140625 19.355469 55.953125 C 18.109375 54.601562 17.398438 53.035156 16.542969 51.429688 C 16.289062 50.980469 15.492188 51.0625 15.480469 51.648438 Z M 15.480469 51.648438 " fill-opacity="1" fill-rule="nonzero"/></g><g fill="#ff00ff" fill-opacity="1"><g transform="translate(59.645354, 63.946593)"><g><path d="M 9.921875 0 L 4.078125 0 C 3.585938 0 3.234375 -0.109375 3.015625 -0.328125 C 2.796875 -0.546875 2.6875 -0.90625 2.6875 -1.40625 L 2.6875 -26.609375 C 2.6875 -27.097656 2.796875 -27.453125 3.015625 -27.671875 C 3.234375 -27.898438 3.585938 -28.015625 4.078125 -28.015625 L 8.125 -28.015625 C 8.625 -28.015625 9.046875 -27.9375 9.390625 -27.78125 C 9.742188 -27.625 10.085938 -27.351562 10.421875 -26.96875 L 17.96875 -18.328125 L 17.96875 -26.609375 C 17.96875 -27.097656 18.078125 -27.453125 18.296875 -27.671875 C 18.523438 -27.898438 18.882812 -28.015625 19.375 -28.015625 L 25.21875 -28.015625 C 25.707031 -28.015625 26.0625 -27.898438 26.28125 -27.671875 C 26.5 -27.453125 26.609375 -27.097656 26.609375 -26.609375 L 26.609375 -1.40625 C 26.609375 -0.90625 26.5 -0.546875 26.28125 -0.328125 C 26.0625 -0.109375 25.707031 0 25.21875 0 L 19.375 0 C 18.882812 0 18.523438 -0.109375 18.296875 -0.328125 C 18.078125 -0.546875 17.96875 -0.90625 17.96875 -1.40625 L 17.96875 -6.1875 L 11.328125 -14.234375 L 11.328125 -1.40625 C 11.328125 -0.90625 11.210938 -0.546875 10.984375 -0.328125 C 10.765625 -0.109375 10.410156 0 9.921875 0 Z M 9.921875 0 "/></g></g></g><g fill="#ff00ff" fill-opacity="1"><g transform="translate(88.947448, 63.946593)"><g><path d="M 12.84375 -19.84375 L 11.015625 -13.921875 L 17.125 -13.921875 L 15.296875 -19.84375 C 15.191406 -20.070312 15.078125 -20.238281 14.953125 -20.34375 C 14.835938 -20.445312 14.703125 -20.5 14.546875 -20.5 L 13.578125 -20.5 C 13.421875 -20.5 13.285156 -20.445312 13.171875 -20.34375 C 13.054688 -20.238281 12.945312 -20.070312 12.84375 -19.84375 Z M 10.625 -1.40625 C 10.625 -0.90625 10.507812 -0.546875 10.28125 -0.328125 C 10.0625 -0.109375 9.707031 0 9.21875 0 L 3.5 0 C 3.007812 0 2.648438 -0.109375 2.421875 -0.328125 C 2.203125 -0.546875 2.09375 -0.90625 2.09375 -1.40625 L 2.09375 -11.671875 C 2.09375 -12.453125 2.21875 -13.347656 2.46875 -14.359375 C 2.71875 -15.367188 3.101562 -16.546875 3.625 -17.890625 L 7 -26.734375 C 7.15625 -27.171875 7.394531 -27.492188 7.71875 -27.703125 C 8.039062 -27.910156 8.460938 -28.015625 8.984375 -28.015625 L 19.453125 -28.015625 C 19.941406 -28.015625 20.347656 -27.910156 20.671875 -27.703125 C 21.003906 -27.492188 21.25 -27.171875 21.40625 -26.734375 L 24.78125 -17.890625 C 25.300781 -16.546875 25.679688 -15.367188 25.921875 -14.359375 C 26.171875 -13.347656 26.296875 -12.453125 26.296875 -11.671875 L 26.296875 -1.40625 C 26.296875 -0.90625 26.1875 -0.546875 25.96875 -0.328125 C 25.75 -0.109375 25.394531 0 24.90625 0 L 19.03125 0 C 18.507812 0 18.125 -0.109375 17.875 -0.328125 C 17.632812 -0.546875 17.515625 -0.90625 17.515625 -1.40625 L 17.515625 -6.84375 L 10.625 -6.84375 Z M 10.625 -1.40625 "/></g></g></g><g fill="#ff00ff" fill-opacity="1"><g transform="translate(117.354523, 63.946593)"><g><path d="M 10.109375 0 L 4.078125 0 C 3.585938 0 3.234375 -0.109375 3.015625 -0.328125 C 2.796875 -0.546875 2.6875 -0.90625 2.6875 -1.40625 L 2.6875 -26.609375 C 2.6875 -27.097656 2.796875 -27.453125 3.015625 -27.671875 C 3.234375 -27.898438 3.585938 -28.015625 4.078125 -28.015625 L 21.4375 -28.015625 C 21.925781 -28.015625 22.28125 -27.898438 22.5 -27.671875 C 22.726562 -27.453125 22.84375 -27.097656 22.84375 -26.609375 L 22.84375 -21.984375 C 22.84375 -21.492188 22.726562 -21.132812 22.5 -20.90625 C 22.28125 -20.6875 21.925781 -20.578125 21.4375 -20.578125 L 11.515625 -20.578125 L 11.515625 -16.53125 L 18.28125 -16.53125 C 18.78125 -16.53125 19.140625 -16.421875 19.359375 -16.203125 C 19.578125 -15.984375 19.6875 -15.628906 19.6875 -15.140625 L 19.6875 -10.46875 C 19.6875 -9.976562 19.578125 -9.617188 19.359375 -9.390625 C 19.140625 -9.171875 18.78125 -9.0625 18.28125 -9.0625 L 11.515625 -9.0625 L 11.515625 -1.40625 C 11.515625 -0.90625 11.40625 -0.546875 11.1875 -0.328125 C 10.96875 -0.109375 10.609375 0 10.109375 0 Z M 10.109375 0 "/></g></g></g><g fill="#00ffff" fill-opacity="1"><g transform="translate(58.726985, 62.812496)"><g><path d="M 9.921875 0 L 4.078125 0 C 3.585938 0 3.234375 -0.109375 3.015625 -0.328125 C 2.796875 -0.546875 2.6875 -0.90625 2.6875 -1.40625 L 2.6875 -26.609375 C 2.6875 -27.097656 2.796875 -27.453125 3.015625 -27.671875 C 3.234375 -27.898438 3.585938 -28.015625 4.078125 -28.015625 L 8.125 -28.015625 C 8.625 -28.015625 9.046875 -27.9375 9.390625 -27.78125 C 9.742188 -27.625 10.085938 -27.351562 10.421875 -26.96875 L 17.96875 -18.328125 L 17.96875 -26.609375 C 17.96875 -27.097656 18.078125 -27.453125 18.296875 -27.671875 C 18.523438 -27.898438 18.882812 -28.015625 19.375 -28.015625 L 25.21875 -28.015625 C 25.707031 -28.015625 26.0625 -27.898438 26.28125 -27.671875 C 26.5 -27.453125 26.609375 -27.097656 26.609375 -26.609375 L 26.609375 -1.40625 C 26.609375 -0.90625 26.5 -0.546875 26.28125 -0.328125 C 26.0625 -0.109375 25.707031 0 25.21875 0 L 19.375 0 C 18.882812 0 18.523438 -0.109375 18.296875 -0.328125 C 18.078125 -0.546875 17.96875 -0.90625 17.96875 -1.40625 L 17.96875 -6.1875 L 11.328125 -14.234375 L 11.328125 -1.40625 C 11.328125 -0.90625 11.210938 -0.546875 10.984375 -0.328125 C 10.765625 -0.109375 10.410156 0 9.921875 0 Z M 9.921875 0 "/></g></g></g><g fill="#00ffff" fill-opacity="1"><g transform="translate(88.029078, 62.812496)"><g><path d="M 12.84375 -19.84375 L 11.015625 -13.921875 L 17.125 -13.921875 L 15.296875 -19.84375 C 15.191406 -20.070312 15.078125 -20.238281 14.953125 -20.34375 C 14.835938 -20.445312 14.703125 -20.5 14.546875 -20.5 L 13.578125 -20.5 C 13.421875 -20.5 13.285156 -20.445312 13.171875 -20.34375 C 13.054688 -20.238281 12.945312 -20.070312 12.84375 -19.84375 Z M 10.625 -1.40625 C 10.625 -0.90625 10.507812 -0.546875 10.28125 -0.328125 C 10.0625 -0.109375 9.707031 0 9.21875 0 L 3.5 0 C 3.007812 0 2.648438 -0.109375 2.421875 -0.328125 C 2.203125 -0.546875 2.09375 -0.90625 2.09375 -1.40625 L 2.09375 -11.671875 C 2.09375 -12.453125 2.21875 -13.347656 2.46875 -14.359375 C 2.71875 -15.367188 3.101562 -16.546875 3.625 -17.890625 L 7 -26.734375 C 7.15625 -27.171875 7.394531 -27.492188 7.71875 -27.703125 C 8.039062 -27.910156 8.460938 -28.015625 8.984375 -28.015625 L 19.453125 -28.015625 C 19.941406 -28.015625 20.347656 -27.910156 20.671875 -27.703125 C 21.003906 -27.492188 21.25 -27.171875 21.40625 -26.734375 L 24.78125 -17.890625 C 25.300781 -16.546875 25.679688 -15.367188 25.921875 -14.359375 C 26.171875 -13.347656 26.296875 -12.453125 26.296875 -11.671875 L 26.296875 -1.40625 C 26.296875 -0.90625 26.1875 -0.546875 25.96875 -0.328125 C 25.75 -0.109375 25.394531 0 24.90625 0 L 19.03125 0 C 18.507812 0 18.125 -0.109375 17.875 -0.328125 C 17.632812 -0.546875 17.515625 -0.90625 17.515625 -1.40625 L 17.515625 -6.84375 L 10.625 -6.84375 Z M 10.625 -1.40625 "/></g></g></g><g fill="#00ffff" fill-opacity="1"><g transform="translate(116.436153, 62.812496)"><g><path d="M 10.109375 0 L 4.078125 0 C 3.585938 0 3.234375 -0.109375 3.015625 -0.328125 C 2.796875 -0.546875 2.6875 -0.90625 2.6875 -1.40625 L 2.6875 -26.609375 C 2.6875 -27.097656 2.796875 -27.453125 3.015625 -27.671875 C 3.234375 -27.898438 3.585938 -28.015625 4.078125 -28.015625 L 21.4375 -28.015625 C 21.925781 -28.015625 22.28125 -27.898438 22.5 -27.671875 C 22.726562 -27.453125 22.84375 -27.097656 22.84375 -26.609375 L 22.84375 -21.984375 C 22.84375 -21.492188 22.726562 -21.132812 22.5 -20.90625 C 22.28125 -20.6875 21.925781 -20.578125 21.4375 -20.578125 L 11.515625 -20.578125 L 11.515625 -16.53125 L 18.28125 -16.53125 C 18.78125 -16.53125 19.140625 -16.421875 19.359375 -16.203125 C 19.578125 -15.984375 19.6875 -15.628906 19.6875 -15.140625 L 19.6875 -10.46875 C 19.6875 -9.976562 19.578125 -9.617188 19.359375 -9.390625 C 19.140625 -9.171875 18.78125 -9.0625 18.28125 -9.0625 L 11.515625 -9.0625 L 11.515625 -1.40625 C 11.515625 -0.90625 11.40625 -0.546875 11.1875 -0.328125 C 10.96875 -0.109375 10.609375 0 10.109375 0 Z M 10.109375 0 "/></g></g></g><g fill="#000000" fill-opacity="1"><g transform="translate(59.18617, 63.379545)"><g><path d="M 9.921875 0 L 4.078125 0 C 3.585938 0 3.234375 -0.109375 3.015625 -0.328125 C 2.796875 -0.546875 2.6875 -0.90625 2.6875 -1.40625 L 2.6875 -26.609375 C 2.6875 -27.097656 2.796875 -27.453125 3.015625 -27.671875 C 3.234375 -27.898438 3.585938 -28.015625 4.078125 -28.015625 L 8.125 -28.015625 C 8.625 -28.015625 9.046875 -27.9375 9.390625 -27.78125 C 9.742188 -27.625 10.085938 -27.351562 10.421875 -26.96875 L 17.96875 -18.328125 L 17.96875 -26.609375 C 17.96875 -27.097656 18.078125 -27.453125 18.296875 -27.671875 C 18.523438 -27.898438 18.882812 -28.015625 19.375 -28.015625 L 25.21875 -28.015625 C 25.707031 -28.015625 26.0625 -27.898438 26.28125 -27.671875 C 26.5 -27.453125 26.609375 -27.097656 26.609375 -26.609375 L 26.609375 -1.40625 C 26.609375 -0.90625 26.5 -0.546875 26.28125 -0.328125 C 26.0625 -0.109375 25.707031 0 25.21875 0 L 19.375 0 C 18.882812 0 18.523438 -0.109375 18.296875 -0.328125 C 18.078125 -0.546875 17.96875 -0.90625 17.96875 -1.40625 L 17.96875 -6.1875 L 11.328125 -14.234375 L 11.328125 -1.40625 C 11.328125 -0.90625 11.210938 -0.546875 10.984375 -0.328125 C 10.765625 -0.109375 10.410156 0 9.921875 0 Z M 9.921875 0 "/></g></g></g><g fill="#000000" fill-opacity="1"><g transform="translate(88.488263, 63.379545)"><g><path d="M 12.84375 -19.84375 L 11.015625 -13.921875 L 17.125 -13.921875 L 15.296875 -19.84375 C 15.191406 -20.070312 15.078125 -20.238281 14.953125 -20.34375 C 14.835938 -20.445312 14.703125 -20.5 14.546875 -20.5 L 13.578125 -20.5 C 13.421875 -20.5 13.285156 -20.445312 13.171875 -20.34375 C 13.054688 -20.238281 12.945312 -20.070312 12.84375 -19.84375 Z M 10.625 -1.40625 C 10.625 -0.90625 10.507812 -0.546875 10.28125 -0.328125 C 10.0625 -0.109375 9.707031 0 9.21875 0 L 3.5 0 C 3.007812 0 2.648438 -0.109375 2.421875 -0.328125 C 2.203125 -0.546875 2.09375 -0.90625 2.09375 -1.40625 L 2.09375 -11.671875 C 2.09375 -12.453125 2.21875 -13.347656 2.46875 -14.359375 C 2.71875 -15.367188 3.101562 -16.546875 3.625 -17.890625 L 7 -26.734375 C 7.15625 -27.171875 7.394531 -27.492188 7.71875 -27.703125 C 8.039062 -27.910156 8.460938 -28.015625 8.984375 -28.015625 L 19.453125 -28.015625 C 19.941406 -28.015625 20.347656 -27.910156 20.671875 -27.703125 C 21.003906 -27.492188 21.25 -27.171875 21.40625 -26.734375 L 24.78125 -17.890625 C 25.300781 -16.546875 25.679688 -15.367188 25.921875 -14.359375 C 26.171875 -13.347656 26.296875 -12.453125 26.296875 -11.671875 L 26.296875 -1.40625 C 26.296875 -0.90625 26.1875 -0.546875 25.96875 -0.328125 C 25.75 -0.109375 25.394531 0 24.90625 0 L 19.03125 0 C 18.507812 0 18.125 -0.109375 17.875 -0.328125 C 17.632812 -0.546875 17.515625 -0.90625 17.515625 -1.40625 L 17.515625 -6.84375 L 10.625 -6.84375 Z M 10.625 -1.40625 "/></g></g></g><g fill="#000000" fill-opacity="1"><g transform="translate(116.895338, 63.379545)"><g><path d="M 10.109375 0 L 4.078125 0 C 3.585938 0 3.234375 -0.109375 3.015625 -0.328125 C 2.796875 -0.546875 2.6875 -0.90625 2.6875 -1.40625 L 2.6875 -26.609375 C 2.6875 -27.097656 2.796875 -27.453125 3.015625 -27.671875 C 3.234375 -27.898438 3.585938 -28.015625 4.078125 -28.015625 L 21.4375 -28.015625 C 21.925781 -28.015625 22.28125 -27.898438 22.5 -27.671875 C 22.726562 -27.453125 22.84375 -27.097656 22.84375 -26.609375 L 22.84375 -21.984375 C 22.84375 -21.492188 22.726562 -21.132812 22.5 -20.90625 C 22.28125 -20.6875 21.925781 -20.578125 21.4375 -20.578125 L 11.515625 -20.578125 L 11.515625 -16.53125 L 18.28125 -16.53125 C 18.78125 -16.53125 19.140625 -16.421875 19.359375 -16.203125 C 19.578125 -15.984375 19.6875 -15.628906 19.6875 -15.140625 L 19.6875 -10.46875 C 19.6875 -9.976562 19.578125 -9.617188 19.359375 -9.390625 C 19.140625 -9.171875 18.78125 -9.0625 18.28125 -9.0625 L 11.515625 -9.0625 L 11.515625 -1.40625 C 11.515625 -0.90625 11.40625 -0.546875 11.1875 -0.328125 C 10.96875 -0.109375 10.609375 0 10.109375 0 Z M 10.109375 0 "/></g></g></g><g fill="#ff00ff" fill-opacity="1"><g transform="translate(141.405272, 62.195425)"><g><path d="M 6.75 -17.671875 C 6.75 -17.671875 6.894531 -17.695312 7.1875 -17.75 C 7.488281 -17.8125 7.78125 -17.84375 8.0625 -17.84375 C 8.34375 -17.851562 8.492188 -17.859375 8.515625 -17.859375 C 9.066406 -17.859375 10.132812 -17.695312 11.71875 -17.375 C 11.601562 -17.414062 11.488281 -17.4375 11.375 -17.4375 C 11.125 -17.4375 10.875 -17.335938 10.625 -17.140625 C 11.351562 -17.296875 12.414062 -17.535156 13.8125 -17.859375 C 13.914062 -17.878906 14.023438 -17.90625 14.140625 -17.9375 C 13.796875 -18.289062 13.484375 -18.648438 13.203125 -19.015625 C 12.847656 -19.472656 12.632812 -19.816406 12.5625 -20.046875 C 12.53125 -20.171875 12.515625 -20.289062 12.515625 -20.40625 C 12.515625 -20.863281 12.734375 -21.289062 13.171875 -21.6875 C 13.253906 -21.769531 13.34375 -21.847656 13.4375 -21.921875 C 11.675781 -21.453125 10.242188 -21.09375 9.140625 -20.84375 C 8.816406 -20.78125 8.503906 -20.75 8.203125 -20.75 C 7.617188 -20.75 6.988281 -20.882812 6.3125 -21.15625 C 5.632812 -21.4375 4.984375 -21.835938 4.359375 -22.359375 C 3.734375 -22.890625 3.238281 -23.375 2.875 -23.8125 C 2.519531 -24.257812 2.34375 -24.484375 2.34375 -24.484375 C 2.34375 -24.484375 2.851562 -24.628906 3.875 -24.921875 C 4.90625 -25.210938 6.578125 -25.597656 8.890625 -26.078125 C 11.140625 -26.535156 14.132812 -27.050781 17.875 -27.625 C 18.101562 -28.03125 18.328125 -28.535156 18.546875 -29.140625 C 18.742188 -29.734375 18.84375 -30.375 18.84375 -31.0625 C 18.84375 -31.132812 18.835938 -31.382812 18.828125 -31.8125 C 18.816406 -32.238281 18.546875 -32.820312 18.015625 -33.5625 C 18.015625 -33.5625 18.503906 -33.554688 19.484375 -33.546875 C 20.460938 -33.535156 21.460938 -33.472656 22.484375 -33.359375 C 23.503906 -33.242188 24.144531 -33.035156 24.40625 -32.734375 C 24.632812 -32.328125 24.75 -31.859375 24.75 -31.328125 C 24.75 -31.171875 24.722656 -30.867188 24.671875 -30.421875 C 24.617188 -29.984375 24.460938 -29.617188 24.203125 -29.328125 C 23.742188 -29.066406 22.617188 -28.628906 20.828125 -28.015625 C 23.554688 -28.359375 25.984375 -28.601562 28.109375 -28.75 C 30.484375 -28.882812 32.40625 -28.953125 33.875 -28.953125 C 34.164062 -28.953125 34.757812 -28.941406 35.65625 -28.921875 C 36.550781 -28.898438 37 -28.890625 37 -28.890625 C 37.5 -28.828125 37.972656 -28.4375 38.421875 -27.71875 C 38.867188 -27.007812 39.148438 -26.367188 39.265625 -25.796875 C 39.390625 -25.222656 39.453125 -24.8125 39.453125 -24.5625 C 39.453125 -24.144531 39.359375 -23.8125 39.171875 -23.5625 C 38.921875 -23.226562 38.703125 -23.054688 38.515625 -23.046875 C 38.328125 -23.046875 38.226562 -23.046875 38.21875 -23.046875 C 37.84375 -23.046875 37.050781 -23.132812 35.84375 -23.3125 C 34.632812 -23.5 32.601562 -23.707031 29.75 -23.9375 C 28.789062 -24 27.847656 -24.03125 26.921875 -24.03125 C 27.003906 -23.976562 27.097656 -23.9375 27.203125 -23.90625 C 27.648438 -23.695312 28.03125 -23.472656 28.34375 -23.234375 C 28.65625 -23.003906 28.835938 -22.769531 28.890625 -22.53125 C 28.890625 -22.457031 28.890625 -22.378906 28.890625 -22.296875 C 28.890625 -21.742188 28.769531 -21.097656 28.53125 -20.359375 C 28.757812 -20.378906 28.976562 -20.390625 29.1875 -20.390625 C 29.582031 -20.390625 29.941406 -20.367188 30.265625 -20.328125 C 32.140625 -19.972656 33.5625 -19.484375 34.53125 -18.859375 C 35.507812 -18.234375 36.144531 -17.757812 36.4375 -17.4375 C 36.613281 -17.289062 36.703125 -17.070312 36.703125 -16.78125 C 36.703125 -16.75 36.695312 -16.632812 36.6875 -16.4375 C 36.675781 -16.238281 36.617188 -15.796875 36.515625 -15.109375 C 36.410156 -14.429688 36.351562 -13.507812 36.34375 -12.34375 C 36.351562 -11.40625 36.378906 -10.21875 36.421875 -8.78125 C 36.472656 -7.34375 36.5 -6.097656 36.5 -5.046875 C 36.5 -4.097656 36.476562 -2.851562 36.4375 -1.3125 C 36.394531 0.21875 36.21875 1.773438 35.90625 3.359375 C 35.59375 4.953125 35.0625 5.925781 34.3125 6.28125 C 34.039062 6.375 33.757812 6.421875 33.46875 6.421875 C 32.925781 6.421875 32.269531 6.210938 31.5 5.796875 C 30.738281 5.378906 29.929688 4.757812 29.078125 3.9375 C 28.234375 3.125 27.53125 2.378906 26.96875 1.703125 C 26.414062 1.023438 26.140625 0.6875 26.140625 0.6875 C 26.140625 0.6875 26.445312 0.691406 27.0625 0.703125 C 27.6875 0.722656 28.078125 0.734375 28.234375 0.734375 C 29.054688 0.734375 29.628906 0.65625 29.953125 0.5 C 30.242188 -1.613281 30.394531 -3.554688 30.40625 -5.328125 C 30.414062 -7.109375 30.421875 -8.066406 30.421875 -8.203125 C 30.421875 -11.378906 30.28125 -13.75 30 -15.3125 C 29.4375 -15.46875 28.671875 -15.546875 27.703125 -15.546875 C 26.898438 -15.546875 25.625 -15.460938 23.875 -15.296875 C 22.132812 -15.140625 20.128906 -14.863281 17.859375 -14.46875 C 15.859375 -14.132812 14.507812 -13.847656 13.8125 -13.609375 C 13.78125 -13.492188 13.757812 -13.367188 13.75 -13.234375 C 13.632812 -12.648438 13.546875 -11.835938 13.484375 -10.796875 C 13.421875 -9.753906 13.382812 -8.414062 13.375 -6.78125 C 13.394531 -5.132812 13.441406 -3.757812 13.515625 -2.65625 C 13.585938 -1.550781 13.625 -0.671875 13.625 -0.015625 C 13.625 0.535156 13.59375 1.191406 13.53125 1.953125 C 13.476562 2.722656 13.203125 3.363281 12.703125 3.875 C 11.671875 4.851562 11.15625 5.34375 11.15625 5.34375 C 11.15625 5.34375 10.894531 5.164062 10.375 4.8125 C 9.851562 4.457031 9.335938 3.945312 8.828125 3.28125 C 8.328125 2.613281 8.050781 1.816406 8 0.890625 C 8.019531 -0.472656 8.0625 -1.84375 8.125 -3.21875 C 8.1875 -4.59375 8.21875 -5.578125 8.21875 -6.171875 C 8.21875 -8.078125 8.09375 -10.300781 7.84375 -12.84375 C 7.65625 -14.375 7.425781 -15.5625 7.15625 -16.40625 C 6.882812 -17.25 6.75 -17.671875 6.75 -17.671875 Z M 18.234375 -18.78125 C 19.828125 -19.101562 21.46875 -19.410156 23.15625 -19.703125 C 23.1875 -19.703125 23.210938 -19.707031 23.234375 -19.71875 C 23.316406 -19.84375 23.40625 -19.988281 23.5 -20.15625 C 23.832031 -20.75 24.09375 -21.457031 24.28125 -22.28125 C 24.382812 -22.6875 24.4375 -23.101562 24.4375 -23.53125 C 24.4375 -23.664062 24.425781 -23.800781 24.40625 -23.9375 C 23.375 -23.875 22.347656 -23.765625 21.328125 -23.609375 C 20.023438 -23.410156 18.785156 -23.191406 17.609375 -22.953125 C 17.453125 -22.578125 17.335938 -22.179688 17.265625 -21.765625 C 17.242188 -21.648438 17.234375 -21.535156 17.234375 -21.421875 C 17.234375 -20.984375 17.414062 -20.597656 17.78125 -20.265625 C 18.175781 -19.953125 18.375 -19.628906 18.375 -19.296875 C 18.375 -19.234375 18.363281 -19.175781 18.34375 -19.125 C 18.320312 -19.007812 18.285156 -18.894531 18.234375 -18.78125 Z M 22.375 -15.109375 C 22.375 -15.109375 22.707031 -15.035156 23.375 -14.890625 C 24.050781 -14.753906 24.828125 -14.570312 25.703125 -14.34375 C 26.578125 -14.113281 27.359375 -13.867188 28.046875 -13.609375 C 28.734375 -13.347656 29.128906 -13.09375 29.234375 -12.84375 C 29.347656 -12.507812 29.40625 -12.171875 29.40625 -11.828125 C 29.40625 -11.628906 29.367188 -11.335938 29.296875 -10.953125 C 29.234375 -10.578125 28.828125 -10.328125 28.078125 -10.203125 C 28.015625 -10.191406 27.945312 -10.1875 27.875 -10.1875 C 27.363281 -10.1875 26.71875 -10.347656 25.9375 -10.671875 C 25.15625 -11.003906 24.4375 -11.40625 23.78125 -11.875 C 23.132812 -12.351562 22.804688 -12.773438 22.796875 -13.140625 C 22.796875 -13.671875 22.722656 -14.128906 22.578125 -14.515625 C 22.441406 -14.910156 22.375 -15.109375 22.375 -15.109375 Z M 21.203125 -14.453125 C 21.203125 -14.453125 20.992188 -14.289062 20.578125 -13.96875 C 20.160156 -13.644531 19.851562 -13.328125 19.65625 -13.015625 C 19.46875 -12.710938 19.375 -12.472656 19.375 -12.296875 C 19.375 -12.078125 19.46875 -11.867188 19.65625 -11.671875 C 19.820312 -11.515625 19.90625 -11.367188 19.90625 -11.234375 C 19.90625 -11.097656 19.84375 -10.96875 19.71875 -10.84375 C 19.601562 -10.71875 19.441406 -10.59375 19.234375 -10.46875 C 19.023438 -10.351562 18.789062 -10.238281 18.53125 -10.125 C 18.28125 -10.007812 18.023438 -9.894531 17.765625 -9.78125 C 17.503906 -9.664062 17.253906 -9.550781 17.015625 -9.4375 C 16.773438 -9.320312 16.570312 -9.207031 16.40625 -9.09375 C 16.226562 -9 16.0625 -8.953125 15.90625 -8.953125 C 15.6875 -8.953125 15.429688 -9.070312 15.140625 -9.3125 C 14.859375 -9.550781 14.601562 -9.898438 14.375 -10.359375 C 14.144531 -10.828125 14.023438 -11.179688 14.015625 -11.421875 C 14.046875 -11.898438 14.414062 -12.328125 15.125 -12.703125 C 15.832031 -13.078125 16.65625 -13.390625 17.59375 -13.640625 C 18.53125 -13.898438 19.363281 -14.097656 20.09375 -14.234375 C 20.832031 -14.378906 21.203125 -14.453125 21.203125 -14.453125 Z M 14.875 -8.609375 C 14.875 -8.609375 15.195312 -8.585938 15.84375 -8.546875 C 16.375 -8.523438 16.910156 -8.453125 17.453125 -8.328125 C 18.140625 -8.515625 18.898438 -8.703125 19.734375 -8.890625 C 20.828125 -9.140625 21.789062 -9.304688 22.625 -9.390625 C 23.445312 -9.460938 24.128906 -9.53125 24.671875 -9.59375 C 25.222656 -9.664062 25.632812 -9.703125 25.90625 -9.703125 C 26.332031 -9.703125 26.757812 -9.644531 27.1875 -9.53125 C 27.625 -9.414062 27.898438 -9.050781 28.015625 -8.4375 C 28.078125 -8.144531 28.109375 -7.835938 28.109375 -7.515625 C 28.109375 -7.265625 28.078125 -6.914062 28.015625 -6.46875 C 27.953125 -6.03125 27.675781 -5.445312 27.1875 -4.71875 C 26.9375 -4.375 26.703125 -4.066406 26.484375 -3.796875 C 26.554688 -3.785156 26.628906 -3.773438 26.703125 -3.765625 C 27.015625 -3.679688 27.195312 -3.472656 27.25 -3.140625 C 27.3125 -2.816406 27.34375 -2.550781 27.34375 -2.34375 C 27.34375 -2.082031 27.300781 -1.765625 27.21875 -1.390625 C 27.144531 -1.015625 26.988281 -0.738281 26.75 -0.5625 C 25.875 -0.601562 25.054688 -0.625 24.296875 -0.625 C 22.222656 -0.625 20.570312 -0.472656 19.34375 -0.171875 C 19.289062 -0.109375 19.234375 -0.0507812 19.171875 0 C 18.710938 0.40625 18.335938 0.644531 18.046875 0.71875 C 17.753906 0.789062 17.566406 0.828125 17.484375 0.828125 C 17.171875 0.828125 16.96875 0.660156 16.875 0.328125 C 15.539062 -5.628906 14.875 -8.609375 14.875 -8.609375 Z M 19.828125 -3.1875 C 20.410156 -3.269531 21.085938 -3.347656 21.859375 -3.421875 C 22.148438 -3.796875 22.398438 -4.148438 22.609375 -4.484375 C 22.929688 -5.035156 23.171875 -5.484375 23.328125 -5.828125 C 23.484375 -6.179688 23.5625 -6.359375 23.5625 -6.359375 C 23.5625 -6.359375 23.046875 -6.269531 22.015625 -6.09375 C 21.054688 -5.925781 20.164062 -5.800781 19.34375 -5.71875 C 19.425781 -5.289062 19.523438 -4.8125 19.640625 -4.28125 C 19.710938 -3.882812 19.773438 -3.519531 19.828125 -3.1875 Z M 19.828125 -3.1875 "/></g></g><g transform="translate(183.207271, 62.195425)"><g><path d="M 30.109375 -30.609375 C 30.109375 -30.609375 30.445312 -30.828125 31.125 -31.265625 C 31.8125 -31.703125 32.507812 -32.082031 33.21875 -32.40625 C 33.9375 -32.726562 34.507812 -32.890625 34.9375 -32.890625 C 35.082031 -32.890625 35.222656 -32.867188 35.359375 -32.828125 C 36.097656 -32.515625 36.707031 -32.03125 37.1875 -31.375 C 37.664062 -30.71875 37.90625 -30.203125 37.90625 -29.828125 C 37.90625 -29.703125 37.882812 -29.582031 37.84375 -29.46875 C 37.539062 -29.007812 37.015625 -28.351562 36.265625 -27.5 C 35.523438 -26.65625 35.15625 -26.234375 35.15625 -26.234375 C 35.15625 -26.234375 35.140625 -26.359375 35.109375 -26.609375 C 35.078125 -26.867188 34.984375 -27.164062 34.828125 -27.5 C 34.671875 -27.84375 34.40625 -28.15625 34.03125 -28.4375 C 33.394531 -28.851562 32.582031 -29.316406 31.59375 -29.828125 C 30.601562 -30.347656 30.109375 -30.609375 30.109375 -30.609375 Z M 13.34375 -20.984375 C 13.34375 -20.984375 13.398438 -21.015625 13.515625 -21.078125 C 13.640625 -21.148438 14.113281 -21.304688 14.9375 -21.546875 C 15.757812 -21.796875 17.171875 -22.179688 19.171875 -22.703125 C 21.285156 -23.210938 23.519531 -23.679688 25.875 -24.109375 C 25.800781 -24.703125 25.742188 -25.265625 25.703125 -25.796875 C 25.515625 -27.765625 25.398438 -28.882812 25.359375 -29.15625 C 25.398438 -29.976562 25.660156 -30.429688 26.140625 -30.515625 C 26.628906 -30.597656 26.984375 -30.640625 27.203125 -30.640625 C 27.742188 -30.640625 28.347656 -30.492188 29.015625 -30.203125 C 29.679688 -29.921875 30.039062 -29.5 30.09375 -28.9375 C 30.09375 -28.914062 30.09375 -28.894531 30.09375 -28.875 C 30.09375 -28.269531 30.269531 -26.945312 30.625 -24.90625 C 34.363281 -25.457031 36.234375 -25.734375 36.234375 -25.734375 C 36.253906 -25.734375 36.285156 -25.734375 36.328125 -25.734375 C 36.753906 -25.734375 37.210938 -25.46875 37.703125 -24.9375 C 38.191406 -24.40625 38.507812 -23.875 38.65625 -23.34375 C 38.800781 -22.820312 38.875 -22.441406 38.875 -22.203125 C 38.875 -21.710938 38.726562 -21.242188 38.4375 -20.796875 C 37.976562 -20.203125 37.453125 -19.875 36.859375 -19.8125 C 36.265625 -19.75 35.675781 -19.71875 35.09375 -19.71875 C 34.695312 -19.71875 34.269531 -19.726562 33.8125 -19.75 C 33.664062 -19.75 33.507812 -19.75 33.34375 -19.75 C 32.6875 -19.75 31.957031 -19.710938 31.15625 -19.640625 C 31.4375 -17.828125 31.78125 -15.882812 32.1875 -13.8125 C 32.394531 -12.71875 32.617188 -11.644531 32.859375 -10.59375 C 33.023438 -11.0625 33.164062 -11.546875 33.28125 -12.046875 C 33.445312 -12.773438 33.53125 -13.550781 33.53125 -14.375 C 33.53125 -15.226562 33.441406 -16.117188 33.265625 -17.046875 C 33.265625 -17.046875 33.648438 -17 34.421875 -16.90625 C 35.191406 -16.820312 35.984375 -16.648438 36.796875 -16.390625 C 37.609375 -16.140625 38.132812 -15.757812 38.375 -15.25 C 38.4375 -15.070312 38.46875 -14.835938 38.46875 -14.546875 C 38.46875 -13.878906 38.257812 -12.738281 37.84375 -11.125 C 37.425781 -9.519531 36.550781 -7.5625 35.21875 -5.25 C 35.039062 -4.925781 34.851562 -4.613281 34.65625 -4.3125 C 34.71875 -4.125 34.78125 -3.941406 34.84375 -3.765625 C 35.09375 -2.960938 35.414062 -2.25 35.8125 -1.625 C 36.21875 -1 36.5625 -0.570312 36.84375 -0.34375 C 37.125 -0.125 37.34375 -0.015625 37.5 -0.015625 C 37.625 -0.015625 37.734375 -0.0703125 37.828125 -0.1875 C 38.179688 -0.71875 38.773438 -1.628906 39.609375 -2.921875 C 40.453125 -4.222656 40.941406 -4.921875 41.078125 -5.015625 C 41.085938 -4.796875 41.179688 -3.789062 41.359375 -2 C 41.535156 -0.207031 41.84375 1.515625 42.28125 3.171875 C 42.414062 3.410156 42.484375 3.640625 42.484375 3.859375 C 42.484375 4.273438 42.175781 4.679688 41.5625 5.078125 C 40.957031 5.484375 40.328125 5.691406 39.671875 5.703125 C 39.023438 5.710938 38.679688 5.71875 38.640625 5.71875 C 37.410156 5.71875 36.1875 5.390625 34.96875 4.734375 C 33.550781 3.585938 32.320312 1.914062 31.28125 -0.28125 C 30.8125 0.15625 30.3125 0.59375 29.78125 1.03125 C 28.644531 1.832031 27.421875 2.347656 26.109375 2.578125 C 24.796875 2.804688 23.660156 2.921875 22.703125 2.921875 C 22.546875 2.921875 22.164062 2.910156 21.5625 2.890625 C 20.957031 2.878906 20.65625 2.875 20.65625 2.875 C 20.65625 2.875 21.082031 2.644531 21.9375 2.1875 C 22.800781 1.738281 23.832031 1.046875 25.03125 0.109375 C 26.238281 -0.828125 27.410156 -2.015625 28.546875 -3.453125 C 28.890625 -3.898438 29.222656 -4.34375 29.546875 -4.78125 C 29.054688 -6.269531 28.628906 -7.828125 28.265625 -9.453125 C 28.117188 -10.078125 27.976562 -10.703125 27.84375 -11.328125 C 27.832031 -10.828125 27.796875 -10.1875 27.734375 -9.40625 C 27.609375 -7.832031 27.351562 -6.320312 26.96875 -4.875 C 26.613281 -3.550781 26.222656 -2.476562 25.796875 -1.65625 C 25.378906 -0.84375 24.785156 -0.234375 24.015625 0.171875 C 23.847656 0.234375 23.675781 0.265625 23.5 0.265625 C 23.113281 0.265625 22.679688 0.0664062 22.203125 -0.328125 C 21.722656 -0.734375 21.28125 -1.234375 20.875 -1.828125 C 20.476562 -2.421875 20.28125 -2.71875 20.28125 -2.71875 C 20.28125 -2.71875 20.535156 -2.738281 21.046875 -2.78125 C 21.554688 -2.820312 21.957031 -2.941406 22.25 -3.140625 C 22.5625 -3.609375 22.832031 -4.382812 23.0625 -5.46875 C 23.300781 -6.5625 23.421875 -7.753906 23.421875 -9.046875 C 22.515625 -9.003906 21.75 -8.960938 21.125 -8.921875 C 21 -7.878906 20.828125 -6.804688 20.609375 -5.703125 C 20.148438 -3.390625 19.414062 -1.160156 18.40625 0.984375 C 17.8125 2.128906 17.035156 2.960938 16.078125 3.484375 C 15.117188 4.015625 14.238281 4.328125 13.4375 4.421875 C 12.632812 4.523438 11.976562 4.578125 11.46875 4.578125 C 11.164062 4.578125 10.78125 4.550781 10.3125 4.5 C 9.84375 4.445312 9.609375 4.421875 9.609375 4.421875 C 9.609375 4.421875 9.910156 4.078125 10.515625 3.390625 C 11.117188 2.703125 11.800781 1.765625 12.5625 0.578125 C 13.320312 -0.609375 13.976562 -1.972656 14.53125 -3.515625 C 14.84375 -4.453125 15.179688 -5.691406 15.546875 -7.234375 C 15.910156 -8.785156 16.179688 -10.429688 16.359375 -12.171875 C 16.421875 -12.867188 16.453125 -13.554688 16.453125 -14.234375 C 16.453125 -15.203125 16.382812 -16.144531 16.25 -17.0625 C 16.039062 -17.113281 15.847656 -17.1875 15.671875 -17.28125 C 15.046875 -17.625 14.5625 -18.082031 14.21875 -18.65625 C 13.882812 -19.238281 13.65625 -19.769531 13.53125 -20.25 C 13.40625 -20.738281 13.34375 -20.984375 13.34375 -20.984375 Z M 5.140625 -25 C 5.140625 -24.914062 5.390625 -24.816406 5.890625 -24.703125 C 6.398438 -24.585938 6.984375 -24.53125 7.640625 -24.53125 C 7.953125 -24.53125 8.300781 -24.539062 8.6875 -24.5625 C 8.726562 -24.5625 8.769531 -24.5625 8.8125 -24.5625 C 9.5 -24.5625 9.988281 -24.378906 10.28125 -24.015625 C 10.570312 -23.660156 10.726562 -23.304688 10.75 -22.953125 C 10.78125 -22.609375 10.796875 -22.347656 10.796875 -22.171875 C 10.796875 -22.023438 10.785156 -21.910156 10.765625 -21.828125 C 10.722656 -21.648438 10.617188 -20.976562 10.453125 -19.8125 C 10.390625 -19.394531 10.335938 -18.835938 10.296875 -18.140625 C 10.347656 -18.171875 10.390625 -18.195312 10.421875 -18.21875 C 10.890625 -18.5 11.457031 -18.640625 12.125 -18.640625 C 12.25 -18.640625 12.378906 -18.632812 12.515625 -18.625 C 12.859375 -18.550781 13.175781 -18.363281 13.46875 -18.0625 C 13.769531 -17.757812 14.03125 -17.382812 14.25 -16.9375 C 14.476562 -16.5 14.65625 -16.046875 14.78125 -15.578125 C 14.90625 -15.117188 14.96875 -14.785156 14.96875 -14.578125 C 14.976562 -14.378906 14.984375 -14.265625 14.984375 -14.234375 C 14.984375 -13.910156 14.925781 -13.675781 14.8125 -13.53125 C 14.445312 -13.0625 14.113281 -12.816406 13.8125 -12.796875 C 13.519531 -12.785156 13.28125 -12.78125 13.09375 -12.78125 C 12.71875 -12.78125 12.28125 -12.796875 11.78125 -12.828125 C 11.726562 -12.828125 11.675781 -12.828125 11.625 -12.828125 C 11.226562 -12.828125 10.757812 -12.78125 10.21875 -12.6875 C 10.21875 -12.15625 10.21875 -11.648438 10.21875 -11.171875 C 10.21875 -10.222656 10.210938 -9.394531 10.203125 -8.6875 C 10.378906 -8.769531 10.554688 -8.847656 10.734375 -8.921875 C 12.265625 -9.617188 13.519531 -10.15625 14.5 -10.53125 C 15.488281 -10.914062 15.984375 -11.109375 15.984375 -11.109375 C 15.984375 -11.109375 15.710938 -10.539062 15.171875 -9.40625 C 14.628906 -8.28125 14.203125 -7.289062 13.890625 -6.4375 C 13.710938 -5.957031 13.375 -5.578125 12.875 -5.296875 C 12.375 -5.015625 11.773438 -4.691406 11.078125 -4.328125 C 10.390625 -3.972656 9.671875 -3.429688 8.921875 -2.703125 C 8.179688 -1.921875 7.390625 -1.226562 6.546875 -0.625 C 5.710938 -0.03125 5.0625 0.320312 4.59375 0.4375 C 4.132812 0.5625 3.816406 0.625 3.640625 0.625 C 3.191406 0.625 2.828125 0.453125 2.546875 0.109375 C 1.921875 -0.660156 1.222656 -1.382812 0.453125 -2.0625 C -0.304688 -2.75 -0.6875 -3.09375 -0.6875 -3.09375 C -0.175781 -3.6875 0.222656 -4.070312 0.515625 -4.25 C 0.804688 -4.425781 1.125 -4.546875 1.46875 -4.609375 C 1.820312 -4.679688 2.332031 -4.835938 3 -5.078125 C 3.644531 -5.304688 4.582031 -5.753906 5.8125 -6.421875 C 5.675781 -7.242188 5.582031 -8.203125 5.53125 -9.296875 C 5.519531 -9.679688 5.515625 -10.09375 5.515625 -10.53125 C 5.515625 -10.738281 5.515625 -10.953125 5.515625 -11.171875 C 4.910156 -10.898438 4.28125 -10.597656 3.625 -10.265625 C 3.507812 -10.210938 3.390625 -10.1875 3.265625 -10.1875 C 2.972656 -10.1875 2.644531 -10.363281 2.28125 -10.71875 C 1.914062 -11.082031 1.546875 -11.597656 1.171875 -12.265625 C 0.804688 -12.941406 0.503906 -13.554688 0.265625 -14.109375 C 0.0351562 -14.660156 -0.078125 -14.9375 -0.078125 -14.9375 C -0.078125 -14.9375 0.382812 -15.019531 1.3125 -15.1875 C 2.238281 -15.351562 3.347656 -15.601562 4.640625 -15.9375 C 4.960938 -16.03125 5.285156 -16.117188 5.609375 -16.203125 C 5.578125 -17.535156 5.519531 -18.988281 5.4375 -20.5625 C 5.238281 -23.519531 5.140625 -25 5.140625 -25 Z M 21.390625 -13.125 C 22.191406 -13.34375 23.066406 -13.484375 24.015625 -13.546875 C 24.210938 -13.566406 24.414062 -13.578125 24.625 -13.578125 C 25.050781 -13.578125 25.5 -13.515625 25.96875 -13.390625 C 26.4375 -13.273438 26.847656 -13.117188 27.203125 -12.921875 C 27.359375 -12.816406 27.476562 -12.722656 27.5625 -12.640625 C 27.164062 -14.617188 26.835938 -16.566406 26.578125 -18.484375 C 26.554688 -18.640625 26.535156 -18.789062 26.515625 -18.9375 C 24.609375 -18.59375 22.804688 -18.226562 21.109375 -17.84375 C 21.128906 -17.675781 21.160156 -17.5 21.203125 -17.3125 C 21.328125 -16.3125 21.390625 -15.144531 21.390625 -13.8125 C 21.390625 -13.582031 21.390625 -13.351562 21.390625 -13.125 Z M 21.390625 -13.125 "/></g></g></g><g fill="#00ffff" fill-opacity="1"><g transform="translate(140.486902, 61.061329)"><g><path d="M 6.75 -17.671875 C 6.75 -17.671875 6.894531 -17.695312 7.1875 -17.75 C 7.488281 -17.8125 7.78125 -17.84375 8.0625 -17.84375 C 8.34375 -17.851562 8.492188 -17.859375 8.515625 -17.859375 C 9.066406 -17.859375 10.132812 -17.695312 11.71875 -17.375 C 11.601562 -17.414062 11.488281 -17.4375 11.375 -17.4375 C 11.125 -17.4375 10.875 -17.335938 10.625 -17.140625 C 11.351562 -17.296875 12.414062 -17.535156 13.8125 -17.859375 C 13.914062 -17.878906 14.023438 -17.90625 14.140625 -17.9375 C 13.796875 -18.289062 13.484375 -18.648438 13.203125 -19.015625 C 12.847656 -19.472656 12.632812 -19.816406 12.5625 -20.046875 C 12.53125 -20.171875 12.515625 -20.289062 12.515625 -20.40625 C 12.515625 -20.863281 12.734375 -21.289062 13.171875 -21.6875 C 13.253906 -21.769531 13.34375 -21.847656 13.4375 -21.921875 C 11.675781 -21.453125 10.242188 -21.09375 9.140625 -20.84375 C 8.816406 -20.78125 8.503906 -20.75 8.203125 -20.75 C 7.617188 -20.75 6.988281 -20.882812 6.3125 -21.15625 C 5.632812 -21.4375 4.984375 -21.835938 4.359375 -22.359375 C 3.734375 -22.890625 3.238281 -23.375 2.875 -23.8125 C 2.519531 -24.257812 2.34375 -24.484375 2.34375 -24.484375 C 2.34375 -24.484375 2.851562 -24.628906 3.875 -24.921875 C 4.90625 -25.210938 6.578125 -25.597656 8.890625 -26.078125 C 11.140625 -26.535156 14.132812 -27.050781 17.875 -27.625 C 18.101562 -28.03125 18.328125 -28.535156 18.546875 -29.140625 C 18.742188 -29.734375 18.84375 -30.375 18.84375 -31.0625 C 18.84375 -31.132812 18.835938 -31.382812 18.828125 -31.8125 C 18.816406 -32.238281 18.546875 -32.820312 18.015625 -33.5625 C 18.015625 -33.5625 18.503906 -33.554688 19.484375 -33.546875 C 20.460938 -33.535156 21.460938 -33.472656 22.484375 -33.359375 C 23.503906 -33.242188 24.144531 -33.035156 24.40625 -32.734375 C 24.632812 -32.328125 24.75 -31.859375 24.75 -31.328125 C 24.75 -31.171875 24.722656 -30.867188 24.671875 -30.421875 C 24.617188 -29.984375 24.460938 -29.617188 24.203125 -29.328125 C 23.742188 -29.066406 22.617188 -28.628906 20.828125 -28.015625 C 23.554688 -28.359375 25.984375 -28.601562 28.109375 -28.75 C 30.484375 -28.882812 32.40625 -28.953125 33.875 -28.953125 C 34.164062 -28.953125 34.757812 -28.941406 35.65625 -28.921875 C 36.550781 -28.898438 37 -28.890625 37 -28.890625 C 37.5 -28.828125 37.972656 -28.4375 38.421875 -27.71875 C 38.867188 -27.007812 39.148438 -26.367188 39.265625 -25.796875 C 39.390625 -25.222656 39.453125 -24.8125 39.453125 -24.5625 C 39.453125 -24.144531 39.359375 -23.8125 39.171875 -23.5625 C 38.921875 -23.226562 38.703125 -23.054688 38.515625 -23.046875 C 38.328125 -23.046875 38.226562 -23.046875 38.21875 -23.046875 C 37.84375 -23.046875 37.050781 -23.132812 35.84375 -23.3125 C 34.632812 -23.5 32.601562 -23.707031 29.75 -23.9375 C 28.789062 -24 27.847656 -24.03125 26.921875 -24.03125 C 27.003906 -23.976562 27.097656 -23.9375 27.203125 -23.90625 C 27.648438 -23.695312 28.03125 -23.472656 28.34375 -23.234375 C 28.65625 -23.003906 28.835938 -22.769531 28.890625 -22.53125 C 28.890625 -22.457031 28.890625 -22.378906 28.890625 -22.296875 C 28.890625 -21.742188 28.769531 -21.097656 28.53125 -20.359375 C 28.757812 -20.378906 28.976562 -20.390625 29.1875 -20.390625 C 29.582031 -20.390625 29.941406 -20.367188 30.265625 -20.328125 C 32.140625 -19.972656 33.5625 -19.484375 34.53125 -18.859375 C 35.507812 -18.234375 36.144531 -17.757812 36.4375 -17.4375 C 36.613281 -17.289062 36.703125 -17.070312 36.703125 -16.78125 C 36.703125 -16.75 36.695312 -16.632812 36.6875 -16.4375 C 36.675781 -16.238281 36.617188 -15.796875 36.515625 -15.109375 C 36.410156 -14.429688 36.351562 -13.507812 36.34375 -12.34375 C 36.351562 -11.40625 36.378906 -10.21875 36.421875 -8.78125 C 36.472656 -7.34375 36.5 -6.097656 36.5 -5.046875 C 36.5 -4.097656 36.476562 -2.851562 36.4375 -1.3125 C 36.394531 0.21875 36.21875 1.773438 35.90625 3.359375 C 35.59375 4.953125 35.0625 5.925781 34.3125 6.28125 C 34.039062 6.375 33.757812 6.421875 33.46875 6.421875 C 32.925781 6.421875 32.269531 6.210938 31.5 5.796875 C 30.738281 5.378906 29.929688 4.757812 29.078125 3.9375 C 28.234375 3.125 27.53125 2.378906 26.96875 1.703125 C 26.414062 1.023438 26.140625 0.6875 26.140625 0.6875 C 26.140625 0.6875 26.445312 0.691406 27.0625 0.703125 C 27.6875 0.722656 28.078125 0.734375 28.234375 0.734375 C 29.054688 0.734375 29.628906 0.65625 29.953125 0.5 C 30.242188 -1.613281 30.394531 -3.554688 30.40625 -5.328125 C 30.414062 -7.109375 30.421875 -8.066406 30.421875 -8.203125 C 30.421875 -11.378906 30.28125 -13.75 30 -15.3125 C 29.4375 -15.46875 28.671875 -15.546875 27.703125 -15.546875 C 26.898438 -15.546875 25.625 -15.460938 23.875 -15.296875 C 22.132812 -15.140625 20.128906 -14.863281 17.859375 -14.46875 C 15.859375 -14.132812 14.507812 -13.847656 13.8125 -13.609375 C 13.78125 -13.492188 13.757812 -13.367188 13.75 -13.234375 C 13.632812 -12.648438 13.546875 -11.835938 13.484375 -10.796875 C 13.421875 -9.753906 13.382812 -8.414062 13.375 -6.78125 C 13.394531 -5.132812 13.441406 -3.757812 13.515625 -2.65625 C 13.585938 -1.550781 13.625 -0.671875 13.625 -0.015625 C 13.625 0.535156 13.59375 1.191406 13.53125 1.953125 C 13.476562 2.722656 13.203125 3.363281 12.703125 3.875 C 11.671875 4.851562 11.15625 5.34375 11.15625 5.34375 C 11.15625 5.34375 10.894531 5.164062 10.375 4.8125 C 9.851562 4.457031 9.335938 3.945312 8.828125 3.28125 C 8.328125 2.613281 8.050781 1.816406 8 0.890625 C 8.019531 -0.472656 8.0625 -1.84375 8.125 -3.21875 C 8.1875 -4.59375 8.21875 -5.578125 8.21875 -6.171875 C 8.21875 -8.078125 8.09375 -10.300781 7.84375 -12.84375 C 7.65625 -14.375 7.425781 -15.5625 7.15625 -16.40625 C 6.882812 -17.25 6.75 -17.671875 6.75 -17.671875 Z M 18.234375 -18.78125 C 19.828125 -19.101562 21.46875 -19.410156 23.15625 -19.703125 C 23.1875 -19.703125 23.210938 -19.707031 23.234375 -19.71875 C 23.316406 -19.84375 23.40625 -19.988281 23.5 -20.15625 C 23.832031 -20.75 24.09375 -21.457031 24.28125 -22.28125 C 24.382812 -22.6875 24.4375 -23.101562 24.4375 -23.53125 C 24.4375 -23.664062 24.425781 -23.800781 24.40625 -23.9375 C 23.375 -23.875 22.347656 -23.765625 21.328125 -23.609375 C 20.023438 -23.410156 18.785156 -23.191406 17.609375 -22.953125 C 17.453125 -22.578125 17.335938 -22.179688 17.265625 -21.765625 C 17.242188 -21.648438 17.234375 -21.535156 17.234375 -21.421875 C 17.234375 -20.984375 17.414062 -20.597656 17.78125 -20.265625 C 18.175781 -19.953125 18.375 -19.628906 18.375 -19.296875 C 18.375 -19.234375 18.363281 -19.175781 18.34375 -19.125 C 18.320312 -19.007812 18.285156 -18.894531 18.234375 -18.78125 Z M 22.375 -15.109375 C 22.375 -15.109375 22.707031 -15.035156 23.375 -14.890625 C 24.050781 -14.753906 24.828125 -14.570312 25.703125 -14.34375 C 26.578125 -14.113281 27.359375 -13.867188 28.046875 -13.609375 C 28.734375 -13.347656 29.128906 -13.09375 29.234375 -12.84375 C 29.347656 -12.507812 29.40625 -12.171875 29.40625 -11.828125 C 29.40625 -11.628906 29.367188 -11.335938 29.296875 -10.953125 C 29.234375 -10.578125 28.828125 -10.328125 28.078125 -10.203125 C 28.015625 -10.191406 27.945312 -10.1875 27.875 -10.1875 C 27.363281 -10.1875 26.71875 -10.347656 25.9375 -10.671875 C 25.15625 -11.003906 24.4375 -11.40625 23.78125 -11.875 C 23.132812 -12.351562 22.804688 -12.773438 22.796875 -13.140625 C 22.796875 -13.671875 22.722656 -14.128906 22.578125 -14.515625 C 22.441406 -14.910156 22.375 -15.109375 22.375 -15.109375 Z M 21.203125 -14.453125 C 21.203125 -14.453125 20.992188 -14.289062 20.578125 -13.96875 C 20.160156 -13.644531 19.851562 -13.328125 19.65625 -13.015625 C 19.46875 -12.710938 19.375 -12.472656 19.375 -12.296875 C 19.375 -12.078125 19.46875 -11.867188 19.65625 -11.671875 C 19.820312 -11.515625 19.90625 -11.367188 19.90625 -11.234375 C 19.90625 -11.097656 19.84375 -10.96875 19.71875 -10.84375 C 19.601562 -10.71875 19.441406 -10.59375 19.234375 -10.46875 C 19.023438 -10.351562 18.789062 -10.238281 18.53125 -10.125 C 18.28125 -10.007812 18.023438 -9.894531 17.765625 -9.78125 C 17.503906 -9.664062 17.253906 -9.550781 17.015625 -9.4375 C 16.773438 -9.320312 16.570312 -9.207031 16.40625 -9.09375 C 16.226562 -9 16.0625 -8.953125 15.90625 -8.953125 C 15.6875 -8.953125 15.429688 -9.070312 15.140625 -9.3125 C 14.859375 -9.550781 14.601562 -9.898438 14.375 -10.359375 C 14.144531 -10.828125 14.023438 -11.179688 14.015625 -11.421875 C 14.046875 -11.898438 14.414062 -12.328125 15.125 -12.703125 C 15.832031 -13.078125 16.65625 -13.390625 17.59375 -13.640625 C 18.53125 -13.898438 19.363281 -14.097656 20.09375 -14.234375 C 20.832031 -14.378906 21.203125 -14.453125 21.203125 -14.453125 Z M 14.875 -8.609375 C 14.875 -8.609375 15.195312 -8.585938 15.84375 -8.546875 C 16.375 -8.523438 16.910156 -8.453125 17.453125 -8.328125 C 18.140625 -8.515625 18.898438 -8.703125 19.734375 -8.890625 C 20.828125 -9.140625 21.789062 -9.304688 22.625 -9.390625 C 23.445312 -9.460938 24.128906 -9.53125 24.671875 -9.59375 C 25.222656 -9.664062 25.632812 -9.703125 25.90625 -9.703125 C 26.332031 -9.703125 26.757812 -9.644531 27.1875 -9.53125 C 27.625 -9.414062 27.898438 -9.050781 28.015625 -8.4375 C 28.078125 -8.144531 28.109375 -7.835938 28.109375 -7.515625 C 28.109375 -7.265625 28.078125 -6.914062 28.015625 -6.46875 C 27.953125 -6.03125 27.675781 -5.445312 27.1875 -4.71875 C 26.9375 -4.375 26.703125 -4.066406 26.484375 -3.796875 C 26.554688 -3.785156 26.628906 -3.773438 26.703125 -3.765625 C 27.015625 -3.679688 27.195312 -3.472656 27.25 -3.140625 C 27.3125 -2.816406 27.34375 -2.550781 27.34375 -2.34375 C 27.34375 -2.082031 27.300781 -1.765625 27.21875 -1.390625 C 27.144531 -1.015625 26.988281 -0.738281 26.75 -0.5625 C 25.875 -0.601562 25.054688 -0.625 24.296875 -0.625 C 22.222656 -0.625 20.570312 -0.472656 19.34375 -0.171875 C 19.289062 -0.109375 19.234375 -0.0507812 19.171875 0 C 18.710938 0.40625 18.335938 0.644531 18.046875 0.71875 C 17.753906 0.789062 17.566406 0.828125 17.484375 0.828125 C 17.171875 0.828125 16.96875 0.660156 16.875 0.328125 C 15.539062 -5.628906 14.875 -8.609375 14.875 -8.609375 Z M 19.828125 -3.1875 C 20.410156 -3.269531 21.085938 -3.347656 21.859375 -3.421875 C 22.148438 -3.796875 22.398438 -4.148438 22.609375 -4.484375 C 22.929688 -5.035156 23.171875 -5.484375 23.328125 -5.828125 C 23.484375 -6.179688 23.5625 -6.359375 23.5625 -6.359375 C 23.5625 -6.359375 23.046875 -6.269531 22.015625 -6.09375 C 21.054688 -5.925781 20.164062 -5.800781 19.34375 -5.71875 C 19.425781 -5.289062 19.523438 -4.8125 19.640625 -4.28125 C 19.710938 -3.882812 19.773438 -3.519531 19.828125 -3.1875 Z M 19.828125 -3.1875 "/></g></g><g transform="translate(182.288901, 61.061329)"><g><path d="M 30.109375 -30.609375 C 30.109375 -30.609375 30.445312 -30.828125 31.125 -31.265625 C 31.8125 -31.703125 32.507812 -32.082031 33.21875 -32.40625 C 33.9375 -32.726562 34.507812 -32.890625 34.9375 -32.890625 C 35.082031 -32.890625 35.222656 -32.867188 35.359375 -32.828125 C 36.097656 -32.515625 36.707031 -32.03125 37.1875 -31.375 C 37.664062 -30.71875 37.90625 -30.203125 37.90625 -29.828125 C 37.90625 -29.703125 37.882812 -29.582031 37.84375 -29.46875 C 37.539062 -29.007812 37.015625 -28.351562 36.265625 -27.5 C 35.523438 -26.65625 35.15625 -26.234375 35.15625 -26.234375 C 35.15625 -26.234375 35.140625 -26.359375 35.109375 -26.609375 C 35.078125 -26.867188 34.984375 -27.164062 34.828125 -27.5 C 34.671875 -27.84375 34.40625 -28.15625 34.03125 -28.4375 C 33.394531 -28.851562 32.582031 -29.316406 31.59375 -29.828125 C 30.601562 -30.347656 30.109375 -30.609375 30.109375 -30.609375 Z M 13.34375 -20.984375 C 13.34375 -20.984375 13.398438 -21.015625 13.515625 -21.078125 C 13.640625 -21.148438 14.113281 -21.304688 14.9375 -21.546875 C 15.757812 -21.796875 17.171875 -22.179688 19.171875 -22.703125 C 21.285156 -23.210938 23.519531 -23.679688 25.875 -24.109375 C 25.800781 -24.703125 25.742188 -25.265625 25.703125 -25.796875 C 25.515625 -27.765625 25.398438 -28.882812 25.359375 -29.15625 C 25.398438 -29.976562 25.660156 -30.429688 26.140625 -30.515625 C 26.628906 -30.597656 26.984375 -30.640625 27.203125 -30.640625 C 27.742188 -30.640625 28.347656 -30.492188 29.015625 -30.203125 C 29.679688 -29.921875 30.039062 -29.5 30.09375 -28.9375 C 30.09375 -28.914062 30.09375 -28.894531 30.09375 -28.875 C 30.09375 -28.269531 30.269531 -26.945312 30.625 -24.90625 C 34.363281 -25.457031 36.234375 -25.734375 36.234375 -25.734375 C 36.253906 -25.734375 36.285156 -25.734375 36.328125 -25.734375 C 36.753906 -25.734375 37.210938 -25.46875 37.703125 -24.9375 C 38.191406 -24.40625 38.507812 -23.875 38.65625 -23.34375 C 38.800781 -22.820312 38.875 -22.441406 38.875 -22.203125 C 38.875 -21.710938 38.726562 -21.242188 38.4375 -20.796875 C 37.976562 -20.203125 37.453125 -19.875 36.859375 -19.8125 C 36.265625 -19.75 35.675781 -19.71875 35.09375 -19.71875 C 34.695312 -19.71875 34.269531 -19.726562 33.8125 -19.75 C 33.664062 -19.75 33.507812 -19.75 33.34375 -19.75 C 32.6875 -19.75 31.957031 -19.710938 31.15625 -19.640625 C 31.4375 -17.828125 31.78125 -15.882812 32.1875 -13.8125 C 32.394531 -12.71875 32.617188 -11.644531 32.859375 -10.59375 C 33.023438 -11.0625 33.164062 -11.546875 33.28125 -12.046875 C 33.445312 -12.773438 33.53125 -13.550781 33.53125 -14.375 C 33.53125 -15.226562 33.441406 -16.117188 33.265625 -17.046875 C 33.265625 -17.046875 33.648438 -17 34.421875 -16.90625 C 35.191406 -16.820312 35.984375 -16.648438 36.796875 -16.390625 C 37.609375 -16.140625 38.132812 -15.757812 38.375 -15.25 C 38.4375 -15.070312 38.46875 -14.835938 38.46875 -14.546875 C 38.46875 -13.878906 38.257812 -12.738281 37.84375 -11.125 C 37.425781 -9.519531 36.550781 -7.5625 35.21875 -5.25 C 35.039062 -4.925781 34.851562 -4.613281 34.65625 -4.3125 C 34.71875 -4.125 34.78125 -3.941406 34.84375 -3.765625 C 35.09375 -2.960938 35.414062 -2.25 35.8125 -1.625 C 36.21875 -1 36.5625 -0.570312 36.84375 -0.34375 C 37.125 -0.125 37.34375 -0.015625 37.5 -0.015625 C 37.625 -0.015625 37.734375 -0.0703125 37.828125 -0.1875 C 38.179688 -0.71875 38.773438 -1.628906 39.609375 -2.921875 C 40.453125 -4.222656 40.941406 -4.921875 41.078125 -5.015625 C 41.085938 -4.796875 41.179688 -3.789062 41.359375 -2 C 41.535156 -0.207031 41.84375 1.515625 42.28125 3.171875 C 42.414062 3.410156 42.484375 3.640625 42.484375 3.859375 C 42.484375 4.273438 42.175781 4.679688 41.5625 5.078125 C 40.957031 5.484375 40.328125 5.691406 39.671875 5.703125 C 39.023438 5.710938 38.679688 5.71875 38.640625 5.71875 C 37.410156 5.71875 36.1875 5.390625 34.96875 4.734375 C 33.550781 3.585938 32.320312 1.914062 31.28125 -0.28125 C 30.8125 0.15625 30.3125 0.59375 29.78125 1.03125 C 28.644531 1.832031 27.421875 2.347656 26.109375 2.578125 C 24.796875 2.804688 23.660156 2.921875 22.703125 2.921875 C 22.546875 2.921875 22.164062 2.910156 21.5625 2.890625 C 20.957031 2.878906 20.65625 2.875 20.65625 2.875 C 20.65625 2.875 21.082031 2.644531 21.9375 2.1875 C 22.800781 1.738281 23.832031 1.046875 25.03125 0.109375 C 26.238281 -0.828125 27.410156 -2.015625 28.546875 -3.453125 C 28.890625 -3.898438 29.222656 -4.34375 29.546875 -4.78125 C 29.054688 -6.269531 28.628906 -7.828125 28.265625 -9.453125 C 28.117188 -10.078125 27.976562 -10.703125 27.84375 -11.328125 C 27.832031 -10.828125 27.796875 -10.1875 27.734375 -9.40625 C 27.609375 -7.832031 27.351562 -6.320312 26.96875 -4.875 C 26.613281 -3.550781 26.222656 -2.476562 25.796875 -1.65625 C 25.378906 -0.84375 24.785156 -0.234375 24.015625 0.171875 C 23.847656 0.234375 23.675781 0.265625 23.5 0.265625 C 23.113281 0.265625 22.679688 0.0664062 22.203125 -0.328125 C 21.722656 -0.734375 21.28125 -1.234375 20.875 -1.828125 C 20.476562 -2.421875 20.28125 -2.71875 20.28125 -2.71875 C 20.28125 -2.71875 20.535156 -2.738281 21.046875 -2.78125 C 21.554688 -2.820312 21.957031 -2.941406 22.25 -3.140625 C 22.5625 -3.609375 22.832031 -4.382812 23.0625 -5.46875 C 23.300781 -6.5625 23.421875 -7.753906 23.421875 -9.046875 C 22.515625 -9.003906 21.75 -8.960938 21.125 -8.921875 C 21 -7.878906 20.828125 -6.804688 20.609375 -5.703125 C 20.148438 -3.390625 19.414062 -1.160156 18.40625 0.984375 C 17.8125 2.128906 17.035156 2.960938 16.078125 3.484375 C 15.117188 4.015625 14.238281 4.328125 13.4375 4.421875 C 12.632812 4.523438 11.976562 4.578125 11.46875 4.578125 C 11.164062 4.578125 10.78125 4.550781 10.3125 4.5 C 9.84375 4.445312 9.609375 4.421875 9.609375 4.421875 C 9.609375 4.421875 9.910156 4.078125 10.515625 3.390625 C 11.117188 2.703125 11.800781 1.765625 12.5625 0.578125 C 13.320312 -0.609375 13.976562 -1.972656 14.53125 -3.515625 C 14.84375 -4.453125 15.179688 -5.691406 15.546875 -7.234375 C 15.910156 -8.785156 16.179688 -10.429688 16.359375 -12.171875 C 16.421875 -12.867188 16.453125 -13.554688 16.453125 -14.234375 C 16.453125 -15.203125 16.382812 -16.144531 16.25 -17.0625 C 16.039062 -17.113281 15.847656 -17.1875 15.671875 -17.28125 C 15.046875 -17.625 14.5625 -18.082031 14.21875 -18.65625 C 13.882812 -19.238281 13.65625 -19.769531 13.53125 -20.25 C 13.40625 -20.738281 13.34375 -20.984375 13.34375 -20.984375 Z M 5.140625 -25 C 5.140625 -24.914062 5.390625 -24.816406 5.890625 -24.703125 C 6.398438 -24.585938 6.984375 -24.53125 7.640625 -24.53125 C 7.953125 -24.53125 8.300781 -24.539062 8.6875 -24.5625 C 8.726562 -24.5625 8.769531 -24.5625 8.8125 -24.5625 C 9.5 -24.5625 9.988281 -24.378906 10.28125 -24.015625 C 10.570312 -23.660156 10.726562 -23.304688 10.75 -22.953125 C 10.78125 -22.609375 10.796875 -22.347656 10.796875 -22.171875 C 10.796875 -22.023438 10.785156 -21.910156 10.765625 -21.828125 C 10.722656 -21.648438 10.617188 -20.976562 10.453125 -19.8125 C 10.390625 -19.394531 10.335938 -18.835938 10.296875 -18.140625 C 10.347656 -18.171875 10.390625 -18.195312 10.421875 -18.21875 C 10.890625 -18.5 11.457031 -18.640625 12.125 -18.640625 C 12.25 -18.640625 12.378906 -18.632812 12.515625 -18.625 C 12.859375 -18.550781 13.175781 -18.363281 13.46875 -18.0625 C 13.769531 -17.757812 14.03125 -17.382812 14.25 -16.9375 C 14.476562 -16.5 14.65625 -16.046875 14.78125 -15.578125 C 14.90625 -15.117188 14.96875 -14.785156 14.96875 -14.578125 C 14.976562 -14.378906 14.984375 -14.265625 14.984375 -14.234375 C 14.984375 -13.910156 14.925781 -13.675781 14.8125 -13.53125 C 14.445312 -13.0625 14.113281 -12.816406 13.8125 -12.796875 C 13.519531 -12.785156 13.28125 -12.78125 13.09375 -12.78125 C 12.71875 -12.78125 12.28125 -12.796875 11.78125 -12.828125 C 11.726562 -12.828125 11.675781 -12.828125 11.625 -12.828125 C 11.226562 -12.828125 10.757812 -12.78125 10.21875 -12.6875 C 10.21875 -12.15625 10.21875 -11.648438 10.21875 -11.171875 C 10.21875 -10.222656 10.210938 -9.394531 10.203125 -8.6875 C 10.378906 -8.769531 10.554688 -8.847656 10.734375 -8.921875 C 12.265625 -9.617188 13.519531 -10.15625 14.5 -10.53125 C 15.488281 -10.914062 15.984375 -11.109375 15.984375 -11.109375 C 15.984375 -11.109375 15.710938 -10.539062 15.171875 -9.40625 C 14.628906 -8.28125 14.203125 -7.289062 13.890625 -6.4375 C 13.710938 -5.957031 13.375 -5.578125 12.875 -5.296875 C 12.375 -5.015625 11.773438 -4.691406 11.078125 -4.328125 C 10.390625 -3.972656 9.671875 -3.429688 8.921875 -2.703125 C 8.179688 -1.921875 7.390625 -1.226562 6.546875 -0.625 C 5.710938 -0.03125 5.0625 0.320312 4.59375 0.4375 C 4.132812 0.5625 3.816406 0.625 3.640625 0.625 C 3.191406 0.625 2.828125 0.453125 2.546875 0.109375 C 1.921875 -0.660156 1.222656 -1.382812 0.453125 -2.0625 C -0.304688 -2.75 -0.6875 -3.09375 -0.6875 -3.09375 C -0.175781 -3.6875 0.222656 -4.070312 0.515625 -4.25 C 0.804688 -4.425781 1.125 -4.546875 1.46875 -4.609375 C 1.820312 -4.679688 2.332031 -4.835938 3 -5.078125 C 3.644531 -5.304688 4.582031 -5.753906 5.8125 -6.421875 C 5.675781 -7.242188 5.582031 -8.203125 5.53125 -9.296875 C 5.519531 -9.679688 5.515625 -10.09375 5.515625 -10.53125 C 5.515625 -10.738281 5.515625 -10.953125 5.515625 -11.171875 C 4.910156 -10.898438 4.28125 -10.597656 3.625 -10.265625 C 3.507812 -10.210938 3.390625 -10.1875 3.265625 -10.1875 C 2.972656 -10.1875 2.644531 -10.363281 2.28125 -10.71875 C 1.914062 -11.082031 1.546875 -11.597656 1.171875 -12.265625 C 0.804688 -12.941406 0.503906 -13.554688 0.265625 -14.109375 C 0.0351562 -14.660156 -0.078125 -14.9375 -0.078125 -14.9375 C -0.078125 -14.9375 0.382812 -15.019531 1.3125 -15.1875 C 2.238281 -15.351562 3.347656 -15.601562 4.640625 -15.9375 C 4.960938 -16.03125 5.285156 -16.117188 5.609375 -16.203125 C 5.578125 -17.535156 5.519531 -18.988281 5.4375 -20.5625 C 5.238281 -23.519531 5.140625 -25 5.140625 -25 Z M 21.390625 -13.125 C 22.191406 -13.34375 23.066406 -13.484375 24.015625 -13.546875 C 24.210938 -13.566406 24.414062 -13.578125 24.625 -13.578125 C 25.050781 -13.578125 25.5 -13.515625 25.96875 -13.390625 C 26.4375 -13.273438 26.847656 -13.117188 27.203125 -12.921875 C 27.359375 -12.816406 27.476562 -12.722656 27.5625 -12.640625 C 27.164062 -14.617188 26.835938 -16.566406 26.578125 -18.484375 C 26.554688 -18.640625 26.535156 -18.789062 26.515625 -18.9375 C 24.609375 -18.59375 22.804688 -18.226562 21.109375 -17.84375 C 21.128906 -17.675781 21.160156 -17.5 21.203125 -17.3125 C 21.328125 -16.3125 21.390625 -15.144531 21.390625 -13.8125 C 21.390625 -13.582031 21.390625 -13.351562 21.390625 -13.125 Z M 21.390625 -13.125 "/></g></g></g><g fill="#000000" fill-opacity="1"><g transform="translate(140.946087, 61.628377)"><g><path d="M 6.75 -17.671875 C 6.75 -17.671875 6.894531 -17.695312 7.1875 -17.75 C 7.488281 -17.8125 7.78125 -17.84375 8.0625 -17.84375 C 8.34375 -17.851562 8.492188 -17.859375 8.515625 -17.859375 C 9.066406 -17.859375 10.132812 -17.695312 11.71875 -17.375 C 11.601562 -17.414062 11.488281 -17.4375 11.375 -17.4375 C 11.125 -17.4375 10.875 -17.335938 10.625 -17.140625 C 11.351562 -17.296875 12.414062 -17.535156 13.8125 -17.859375 C 13.914062 -17.878906 14.023438 -17.90625 14.140625 -17.9375 C 13.796875 -18.289062 13.484375 -18.648438 13.203125 -19.015625 C 12.847656 -19.472656 12.632812 -19.816406 12.5625 -20.046875 C 12.53125 -20.171875 12.515625 -20.289062 12.515625 -20.40625 C 12.515625 -20.863281 12.734375 -21.289062 13.171875 -21.6875 C 13.253906 -21.769531 13.34375 -21.847656 13.4375 -21.921875 C 11.675781 -21.453125 10.242188 -21.09375 9.140625 -20.84375 C 8.816406 -20.78125 8.503906 -20.75 8.203125 -20.75 C 7.617188 -20.75 6.988281 -20.882812 6.3125 -21.15625 C 5.632812 -21.4375 4.984375 -21.835938 4.359375 -22.359375 C 3.734375 -22.890625 3.238281 -23.375 2.875 -23.8125 C 2.519531 -24.257812 2.34375 -24.484375 2.34375 -24.484375 C 2.34375 -24.484375 2.851562 -24.628906 3.875 -24.921875 C 4.90625 -25.210938 6.578125 -25.597656 8.890625 -26.078125 C 11.140625 -26.535156 14.132812 -27.050781 17.875 -27.625 C 18.101562 -28.03125 18.328125 -28.535156 18.546875 -29.140625 C 18.742188 -29.734375 18.84375 -30.375 18.84375 -31.0625 C 18.84375 -31.132812 18.835938 -31.382812 18.828125 -31.8125 C 18.816406 -32.238281 18.546875 -32.820312 18.015625 -33.5625 C 18.015625 -33.5625 18.503906 -33.554688 19.484375 -33.546875 C 20.460938 -33.535156 21.460938 -33.472656 22.484375 -33.359375 C 23.503906 -33.242188 24.144531 -33.035156 24.40625 -32.734375 C 24.632812 -32.328125 24.75 -31.859375 24.75 -31.328125 C 24.75 -31.171875 24.722656 -30.867188 24.671875 -30.421875 C 24.617188 -29.984375 24.460938 -29.617188 24.203125 -29.328125 C 23.742188 -29.066406 22.617188 -28.628906 20.828125 -28.015625 C 23.554688 -28.359375 25.984375 -28.601562 28.109375 -28.75 C 30.484375 -28.882812 32.40625 -28.953125 33.875 -28.953125 C 34.164062 -28.953125 34.757812 -28.941406 35.65625 -28.921875 C 36.550781 -28.898438 37 -28.890625 37 -28.890625 C 37.5 -28.828125 37.972656 -28.4375 38.421875 -27.71875 C 38.867188 -27.007812 39.148438 -26.367188 39.265625 -25.796875 C 39.390625 -25.222656 39.453125 -24.8125 39.453125 -24.5625 C 39.453125 -24.144531 39.359375 -23.8125 39.171875 -23.5625 C 38.921875 -23.226562 38.703125 -23.054688 38.515625 -23.046875 C 38.328125 -23.046875 38.226562 -23.046875 38.21875 -23.046875 C 37.84375 -23.046875 37.050781 -23.132812 35.84375 -23.3125 C 34.632812 -23.5 32.601562 -23.707031 29.75 -23.9375 C 28.789062 -24 27.847656 -24.03125 26.921875 -24.03125 C 27.003906 -23.976562 27.097656 -23.9375 27.203125 -23.90625 C 27.648438 -23.695312 28.03125 -23.472656 28.34375 -23.234375 C 28.65625 -23.003906 28.835938 -22.769531 28.890625 -22.53125 C 28.890625 -22.457031 28.890625 -22.378906 28.890625 -22.296875 C 28.890625 -21.742188 28.769531 -21.097656 28.53125 -20.359375 C 28.757812 -20.378906 28.976562 -20.390625 29.1875 -20.390625 C 29.582031 -20.390625 29.941406 -20.367188 30.265625 -20.328125 C 32.140625 -19.972656 33.5625 -19.484375 34.53125 -18.859375 C 35.507812 -18.234375 36.144531 -17.757812 36.4375 -17.4375 C 36.613281 -17.289062 36.703125 -17.070312 36.703125 -16.78125 C 36.703125 -16.75 36.695312 -16.632812 36.6875 -16.4375 C 36.675781 -16.238281 36.617188 -15.796875 36.515625 -15.109375 C 36.410156 -14.429688 36.351562 -13.507812 36.34375 -12.34375 C 36.351562 -11.40625 36.378906 -10.21875 36.421875 -8.78125 C 36.472656 -7.34375 36.5 -6.097656 36.5 -5.046875 C 36.5 -4.097656 36.476562 -2.851562 36.4375 -1.3125 C 36.394531 0.21875 36.21875 1.773438 35.90625 3.359375 C 35.59375 4.953125 35.0625 5.925781 34.3125 6.28125 C 34.039062 6.375 33.757812 6.421875 33.46875 6.421875 C 32.925781 6.421875 32.269531 6.210938 31.5 5.796875 C 30.738281 5.378906 29.929688 4.757812 29.078125 3.9375 C 28.234375 3.125 27.53125 2.378906 26.96875 1.703125 C 26.414062 1.023438 26.140625 0.6875 26.140625 0.6875 C 26.140625 0.6875 26.445312 0.691406 27.0625 0.703125 C 27.6875 0.722656 28.078125 0.734375 28.234375 0.734375 C 29.054688 0.734375 29.628906 0.65625 29.953125 0.5 C 30.242188 -1.613281 30.394531 -3.554688 30.40625 -5.328125 C 30.414062 -7.109375 30.421875 -8.066406 30.421875 -8.203125 C 30.421875 -11.378906 30.28125 -13.75 30 -15.3125 C 29.4375 -15.46875 28.671875 -15.546875 27.703125 -15.546875 C 26.898438 -15.546875 25.625 -15.460938 23.875 -15.296875 C 22.132812 -15.140625 20.128906 -14.863281 17.859375 -14.46875 C 15.859375 -14.132812 14.507812 -13.847656 13.8125 -13.609375 C 13.78125 -13.492188 13.757812 -13.367188 13.75 -13.234375 C 13.632812 -12.648438 13.546875 -11.835938 13.484375 -10.796875 C 13.421875 -9.753906 13.382812 -8.414062 13.375 -6.78125 C 13.394531 -5.132812 13.441406 -3.757812 13.515625 -2.65625 C 13.585938 -1.550781 13.625 -0.671875 13.625 -0.015625 C 13.625 0.535156 13.59375 1.191406 13.53125 1.953125 C 13.476562 2.722656 13.203125 3.363281 12.703125 3.875 C 11.671875 4.851562 11.15625 5.34375 11.15625 5.34375 C 11.15625 5.34375 10.894531 5.164062 10.375 4.8125 C 9.851562 4.457031 9.335938 3.945312 8.828125 3.28125 C 8.328125 2.613281 8.050781 1.816406 8 0.890625 C 8.019531 -0.472656 8.0625 -1.84375 8.125 -3.21875 C 8.1875 -4.59375 8.21875 -5.578125 8.21875 -6.171875 C 8.21875 -8.078125 8.09375 -10.300781 7.84375 -12.84375 C 7.65625 -14.375 7.425781 -15.5625 7.15625 -16.40625 C 6.882812 -17.25 6.75 -17.671875 6.75 -17.671875 Z M 18.234375 -18.78125 C 19.828125 -19.101562 21.46875 -19.410156 23.15625 -19.703125 C 23.1875 -19.703125 23.210938 -19.707031 23.234375 -19.71875 C 23.316406 -19.84375 23.40625 -19.988281 23.5 -20.15625 C 23.832031 -20.75 24.09375 -21.457031 24.28125 -22.28125 C 24.382812 -22.6875 24.4375 -23.101562 24.4375 -23.53125 C 24.4375 -23.664062 24.425781 -23.800781 24.40625 -23.9375 C 23.375 -23.875 22.347656 -23.765625 21.328125 -23.609375 C 20.023438 -23.410156 18.785156 -23.191406 17.609375 -22.953125 C 17.453125 -22.578125 17.335938 -22.179688 17.265625 -21.765625 C 17.242188 -21.648438 17.234375 -21.535156 17.234375 -21.421875 C 17.234375 -20.984375 17.414062 -20.597656 17.78125 -20.265625 C 18.175781 -19.953125 18.375 -19.628906 18.375 -19.296875 C 18.375 -19.234375 18.363281 -19.175781 18.34375 -19.125 C 18.320312 -19.007812 18.285156 -18.894531 18.234375 -18.78125 Z M 22.375 -15.109375 C 22.375 -15.109375 22.707031 -15.035156 23.375 -14.890625 C 24.050781 -14.753906 24.828125 -14.570312 25.703125 -14.34375 C 26.578125 -14.113281 27.359375 -13.867188 28.046875 -13.609375 C 28.734375 -13.347656 29.128906 -13.09375 29.234375 -12.84375 C 29.347656 -12.507812 29.40625 -12.171875 29.40625 -11.828125 C 29.40625 -11.628906 29.367188 -11.335938 29.296875 -10.953125 C 29.234375 -10.578125 28.828125 -10.328125 28.078125 -10.203125 C 28.015625 -10.191406 27.945312 -10.1875 27.875 -10.1875 C 27.363281 -10.1875 26.71875 -10.347656 25.9375 -10.671875 C 25.15625 -11.003906 24.4375 -11.40625 23.78125 -11.875 C 23.132812 -12.351562 22.804688 -12.773438 22.796875 -13.140625 C 22.796875 -13.671875 22.722656 -14.128906 22.578125 -14.515625 C 22.441406 -14.910156 22.375 -15.109375 22.375 -15.109375 Z M 21.203125 -14.453125 C 21.203125 -14.453125 20.992188 -14.289062 20.578125 -13.96875 C 20.160156 -13.644531 19.851562 -13.328125 19.65625 -13.015625 C 19.46875 -12.710938 19.375 -12.472656 19.375 -12.296875 C 19.375 -12.078125 19.46875 -11.867188 19.65625 -11.671875 C 19.820312 -11.515625 19.90625 -11.367188 19.90625 -11.234375 C 19.90625 -11.097656 19.84375 -10.96875 19.71875 -10.84375 C 19.601562 -10.71875 19.441406 -10.59375 19.234375 -10.46875 C 19.023438 -10.351562 18.789062 -10.238281 18.53125 -10.125 C 18.28125 -10.007812 18.023438 -9.894531 17.765625 -9.78125 C 17.503906 -9.664062 17.253906 -9.550781 17.015625 -9.4375 C 16.773438 -9.320312 16.570312 -9.207031 16.40625 -9.09375 C 16.226562 -9 16.0625 -8.953125 15.90625 -8.953125 C 15.6875 -8.953125 15.429688 -9.070312 15.140625 -9.3125 C 14.859375 -9.550781 14.601562 -9.898438 14.375 -10.359375 C 14.144531 -10.828125 14.023438 -11.179688 14.015625 -11.421875 C 14.046875 -11.898438 14.414062 -12.328125 15.125 -12.703125 C 15.832031 -13.078125 16.65625 -13.390625 17.59375 -13.640625 C 18.53125 -13.898438 19.363281 -14.097656 20.09375 -14.234375 C 20.832031 -14.378906 21.203125 -14.453125 21.203125 -14.453125 Z M 14.875 -8.609375 C 14.875 -8.609375 15.195312 -8.585938 15.84375 -8.546875 C 16.375 -8.523438 16.910156 -8.453125 17.453125 -8.328125 C 18.140625 -8.515625 18.898438 -8.703125 19.734375 -8.890625 C 20.828125 -9.140625 21.789062 -9.304688 22.625 -9.390625 C 23.445312 -9.460938 24.128906 -9.53125 24.671875 -9.59375 C 25.222656 -9.664062 25.632812 -9.703125 25.90625 -9.703125 C 26.332031 -9.703125 26.757812 -9.644531 27.1875 -9.53125 C 27.625 -9.414062 27.898438 -9.050781 28.015625 -8.4375 C 28.078125 -8.144531 28.109375 -7.835938 28.109375 -7.515625 C 28.109375 -7.265625 28.078125 -6.914062 28.015625 -6.46875 C 27.953125 -6.03125 27.675781 -5.445312 27.1875 -4.71875 C 26.9375 -4.375 26.703125 -4.066406 26.484375 -3.796875 C 26.554688 -3.785156 26.628906 -3.773438 26.703125 -3.765625 C 27.015625 -3.679688 27.195312 -3.472656 27.25 -3.140625 C 27.3125 -2.816406 27.34375 -2.550781 27.34375 -2.34375 C 27.34375 -2.082031 27.300781 -1.765625 27.21875 -1.390625 C 27.144531 -1.015625 26.988281 -0.738281 26.75 -0.5625 C 25.875 -0.601562 25.054688 -0.625 24.296875 -0.625 C 22.222656 -0.625 20.570312 -0.472656 19.34375 -0.171875 C 19.289062 -0.109375 19.234375 -0.0507812 19.171875 0 C 18.710938 0.40625 18.335938 0.644531 18.046875 0.71875 C 17.753906 0.789062 17.566406 0.828125 17.484375 0.828125 C 17.171875 0.828125 16.96875 0.660156 16.875 0.328125 C 15.539062 -5.628906 14.875 -8.609375 14.875 -8.609375 Z M 19.828125 -3.1875 C 20.410156 -3.269531 21.085938 -3.347656 21.859375 -3.421875 C 22.148438 -3.796875 22.398438 -4.148438 22.609375 -4.484375 C 22.929688 -5.035156 23.171875 -5.484375 23.328125 -5.828125 C 23.484375 -6.179688 23.5625 -6.359375 23.5625 -6.359375 C 23.5625 -6.359375 23.046875 -6.269531 22.015625 -6.09375 C 21.054688 -5.925781 20.164062 -5.800781 19.34375 -5.71875 C 19.425781 -5.289062 19.523438 -4.8125 19.640625 -4.28125 C 19.710938 -3.882812 19.773438 -3.519531 19.828125 -3.1875 Z M 19.828125 -3.1875 "/></g></g><g transform="translate(182.748086, 61.628377)"><g><path d="M 30.109375 -30.609375 C 30.109375 -30.609375 30.445312 -30.828125 31.125 -31.265625 C 31.8125 -31.703125 32.507812 -32.082031 33.21875 -32.40625 C 33.9375 -32.726562 34.507812 -32.890625 34.9375 -32.890625 C 35.082031 -32.890625 35.222656 -32.867188 35.359375 -32.828125 C 36.097656 -32.515625 36.707031 -32.03125 37.1875 -31.375 C 37.664062 -30.71875 37.90625 -30.203125 37.90625 -29.828125 C 37.90625 -29.703125 37.882812 -29.582031 37.84375 -29.46875 C 37.539062 -29.007812 37.015625 -28.351562 36.265625 -27.5 C 35.523438 -26.65625 35.15625 -26.234375 35.15625 -26.234375 C 35.15625 -26.234375 35.140625 -26.359375 35.109375 -26.609375 C 35.078125 -26.867188 34.984375 -27.164062 34.828125 -27.5 C 34.671875 -27.84375 34.40625 -28.15625 34.03125 -28.4375 C 33.394531 -28.851562 32.582031 -29.316406 31.59375 -29.828125 C 30.601562 -30.347656 30.109375 -30.609375 30.109375 -30.609375 Z M 13.34375 -20.984375 C 13.34375 -20.984375 13.398438 -21.015625 13.515625 -21.078125 C 13.640625 -21.148438 14.113281 -21.304688 14.9375 -21.546875 C 15.757812 -21.796875 17.171875 -22.179688 19.171875 -22.703125 C 21.285156 -23.210938 23.519531 -23.679688 25.875 -24.109375 C 25.800781 -24.703125 25.742188 -25.265625 25.703125 -25.796875 C 25.515625 -27.765625 25.398438 -28.882812 25.359375 -29.15625 C 25.398438 -29.976562 25.660156 -30.429688 26.140625 -30.515625 C 26.628906 -30.597656 26.984375 -30.640625 27.203125 -30.640625 C 27.742188 -30.640625 28.347656 -30.492188 29.015625 -30.203125 C 29.679688 -29.921875 30.039062 -29.5 30.09375 -28.9375 C 30.09375 -28.914062 30.09375 -28.894531 30.09375 -28.875 C 30.09375 -28.269531 30.269531 -26.945312 30.625 -24.90625 C 34.363281 -25.457031 36.234375 -25.734375 36.234375 -25.734375 C 36.253906 -25.734375 36.285156 -25.734375 36.328125 -25.734375 C 36.753906 -25.734375 37.210938 -25.46875 37.703125 -24.9375 C 38.191406 -24.40625 38.507812 -23.875 38.65625 -23.34375 C 38.800781 -22.820312 38.875 -22.441406 38.875 -22.203125 C 38.875 -21.710938 38.726562 -21.242188 38.4375 -20.796875 C 37.976562 -20.203125 37.453125 -19.875 36.859375 -19.8125 C 36.265625 -19.75 35.675781 -19.71875 35.09375 -19.71875 C 34.695312 -19.71875 34.269531 -19.726562 33.8125 -19.75 C 33.664062 -19.75 33.507812 -19.75 33.34375 -19.75 C 32.6875 -19.75 31.957031 -19.710938 31.15625 -19.640625 C 31.4375 -17.828125 31.78125 -15.882812 32.1875 -13.8125 C 32.394531 -12.71875 32.617188 -11.644531 32.859375 -10.59375 C 33.023438 -11.0625 33.164062 -11.546875 33.28125 -12.046875 C 33.445312 -12.773438 33.53125 -13.550781 33.53125 -14.375 C 33.53125 -15.226562 33.441406 -16.117188 33.265625 -17.046875 C 33.265625 -17.046875 33.648438 -17 34.421875 -16.90625 C 35.191406 -16.820312 35.984375 -16.648438 36.796875 -16.390625 C 37.609375 -16.140625 38.132812 -15.757812 38.375 -15.25 C 38.4375 -15.070312 38.46875 -14.835938 38.46875 -14.546875 C 38.46875 -13.878906 38.257812 -12.738281 37.84375 -11.125 C 37.425781 -9.519531 36.550781 -7.5625 35.21875 -5.25 C 35.039062 -4.925781 34.851562 -4.613281 34.65625 -4.3125 C 34.71875 -4.125 34.78125 -3.941406 34.84375 -3.765625 C 35.09375 -2.960938 35.414062 -2.25 35.8125 -1.625 C 36.21875 -1 36.5625 -0.570312 36.84375 -0.34375 C 37.125 -0.125 37.34375 -0.015625 37.5 -0.015625 C 37.625 -0.015625 37.734375 -0.0703125 37.828125 -0.1875 C 38.179688 -0.71875 38.773438 -1.628906 39.609375 -2.921875 C 40.453125 -4.222656 40.941406 -4.921875 41.078125 -5.015625 C 41.085938 -4.796875 41.179688 -3.789062 41.359375 -2 C 41.535156 -0.207031 41.84375 1.515625 42.28125 3.171875 C 42.414062 3.410156 42.484375 3.640625 42.484375 3.859375 C 42.484375 4.273438 42.175781 4.679688 41.5625 5.078125 C 40.957031 5.484375 40.328125 5.691406 39.671875 5.703125 C 39.023438 5.710938 38.679688 5.71875 38.640625 5.71875 C 37.410156 5.71875 36.1875 5.390625 34.96875 4.734375 C 33.550781 3.585938 32.320312 1.914062 31.28125 -0.28125 C 30.8125 0.15625 30.3125 0.59375 29.78125 1.03125 C 28.644531 1.832031 27.421875 2.347656 26.109375 2.578125 C 24.796875 2.804688 23.660156 2.921875 22.703125 2.921875 C 22.546875 2.921875 22.164062 2.910156 21.5625 2.890625 C 20.957031 2.878906 20.65625 2.875 20.65625 2.875 C 20.65625 2.875 21.082031 2.644531 21.9375 2.1875 C 22.800781 1.738281 23.832031 1.046875 25.03125 0.109375 C 26.238281 -0.828125 27.410156 -2.015625 28.546875 -3.453125 C 28.890625 -3.898438 29.222656 -4.34375 29.546875 -4.78125 C 29.054688 -6.269531 28.628906 -7.828125 28.265625 -9.453125 C 28.117188 -10.078125 27.976562 -10.703125 27.84375 -11.328125 C 27.832031 -10.828125 27.796875 -10.1875 27.734375 -9.40625 C 27.609375 -7.832031 27.351562 -6.320312 26.96875 -4.875 C 26.613281 -3.550781 26.222656 -2.476562 25.796875 -1.65625 C 25.378906 -0.84375 24.785156 -0.234375 24.015625 0.171875 C 23.847656 0.234375 23.675781 0.265625 23.5 0.265625 C 23.113281 0.265625 22.679688 0.0664062 22.203125 -0.328125 C 21.722656 -0.734375 21.28125 -1.234375 20.875 -1.828125 C 20.476562 -2.421875 20.28125 -2.71875 20.28125 -2.71875 C 20.28125 -2.71875 20.535156 -2.738281 21.046875 -2.78125 C 21.554688 -2.820312 21.957031 -2.941406 22.25 -3.140625 C 22.5625 -3.609375 22.832031 -4.382812 23.0625 -5.46875 C 23.300781 -6.5625 23.421875 -7.753906 23.421875 -9.046875 C 22.515625 -9.003906 21.75 -8.960938 21.125 -8.921875 C 21 -7.878906 20.828125 -6.804688 20.609375 -5.703125 C 20.148438 -3.390625 19.414062 -1.160156 18.40625 0.984375 C 17.8125 2.128906 17.035156 2.960938 16.078125 3.484375 C 15.117188 4.015625 14.238281 4.328125 13.4375 4.421875 C 12.632812 4.523438 11.976562 4.578125 11.46875 4.578125 C 11.164062 4.578125 10.78125 4.550781 10.3125 4.5 C 9.84375 4.445312 9.609375 4.421875 9.609375 4.421875 C 9.609375 4.421875 9.910156 4.078125 10.515625 3.390625 C 11.117188 2.703125 11.800781 1.765625 12.5625 0.578125 C 13.320312 -0.609375 13.976562 -1.972656 14.53125 -3.515625 C 14.84375 -4.453125 15.179688 -5.691406 15.546875 -7.234375 C 15.910156 -8.785156 16.179688 -10.429688 16.359375 -12.171875 C 16.421875 -12.867188 16.453125 -13.554688 16.453125 -14.234375 C 16.453125 -15.203125 16.382812 -16.144531 16.25 -17.0625 C 16.039062 -17.113281 15.847656 -17.1875 15.671875 -17.28125 C 15.046875 -17.625 14.5625 -18.082031 14.21875 -18.65625 C 13.882812 -19.238281 13.65625 -19.769531 13.53125 -20.25 C 13.40625 -20.738281 13.34375 -20.984375 13.34375 -20.984375 Z M 5.140625 -25 C 5.140625 -24.914062 5.390625 -24.816406 5.890625 -24.703125 C 6.398438 -24.585938 6.984375 -24.53125 7.640625 -24.53125 C 7.953125 -24.53125 8.300781 -24.539062 8.6875 -24.5625 C 8.726562 -24.5625 8.769531 -24.5625 8.8125 -24.5625 C 9.5 -24.5625 9.988281 -24.378906 10.28125 -24.015625 C 10.570312 -23.660156 10.726562 -23.304688 10.75 -22.953125 C 10.78125 -22.609375 10.796875 -22.347656 10.796875 -22.171875 C 10.796875 -22.023438 10.785156 -21.910156 10.765625 -21.828125 C 10.722656 -21.648438 10.617188 -20.976562 10.453125 -19.8125 C 10.390625 -19.394531 10.335938 -18.835938 10.296875 -18.140625 C 10.347656 -18.171875 10.390625 -18.195312 10.421875 -18.21875 C 10.890625 -18.5 11.457031 -18.640625 12.125 -18.640625 C 12.25 -18.640625 12.378906 -18.632812 12.515625 -18.625 C 12.859375 -18.550781 13.175781 -18.363281 13.46875 -18.0625 C 13.769531 -17.757812 14.03125 -17.382812 14.25 -16.9375 C 14.476562 -16.5 14.65625 -16.046875 14.78125 -15.578125 C 14.90625 -15.117188 14.96875 -14.785156 14.96875 -14.578125 C 14.976562 -14.378906 14.984375 -14.265625 14.984375 -14.234375 C 14.984375 -13.910156 14.925781 -13.675781 14.8125 -13.53125 C 14.445312 -13.0625 14.113281 -12.816406 13.8125 -12.796875 C 13.519531 -12.785156 13.28125 -12.78125 13.09375 -12.78125 C 12.71875 -12.78125 12.28125 -12.796875 11.78125 -12.828125 C 11.726562 -12.828125 11.675781 -12.828125 11.625 -12.828125 C 11.226562 -12.828125 10.757812 -12.78125 10.21875 -12.6875 C 10.21875 -12.15625 10.21875 -11.648438 10.21875 -11.171875 C 10.21875 -10.222656 10.210938 -9.394531 10.203125 -8.6875 C 10.378906 -8.769531 10.554688 -8.847656 10.734375 -8.921875 C 12.265625 -9.617188 13.519531 -10.15625 14.5 -10.53125 C 15.488281 -10.914062 15.984375 -11.109375 15.984375 -11.109375 C 15.984375 -11.109375 15.710938 -10.539062 15.171875 -9.40625 C 14.628906 -8.28125 14.203125 -7.289062 13.890625 -6.4375 C 13.710938 -5.957031 13.375 -5.578125 12.875 -5.296875 C 12.375 -5.015625 11.773438 -4.691406 11.078125 -4.328125 C 10.390625 -3.972656 9.671875 -3.429688 8.921875 -2.703125 C 8.179688 -1.921875 7.390625 -1.226562 6.546875 -0.625 C 5.710938 -0.03125 5.0625 0.320312 4.59375 0.4375 C 4.132812 0.5625 3.816406 0.625 3.640625 0.625 C 3.191406 0.625 2.828125 0.453125 2.546875 0.109375 C 1.921875 -0.660156 1.222656 -1.382812 0.453125 -2.0625 C -0.304688 -2.75 -0.6875 -3.09375 -0.6875 -3.09375 C -0.175781 -3.6875 0.222656 -4.070312 0.515625 -4.25 C 0.804688 -4.425781 1.125 -4.546875 1.46875 -4.609375 C 1.820312 -4.679688 2.332031 -4.835938 3 -5.078125 C 3.644531 -5.304688 4.582031 -5.753906 5.8125 -6.421875 C 5.675781 -7.242188 5.582031 -8.203125 5.53125 -9.296875 C 5.519531 -9.679688 5.515625 -10.09375 5.515625 -10.53125 C 5.515625 -10.738281 5.515625 -10.953125 5.515625 -11.171875 C 4.910156 -10.898438 4.28125 -10.597656 3.625 -10.265625 C 3.507812 -10.210938 3.390625 -10.1875 3.265625 -10.1875 C 2.972656 -10.1875 2.644531 -10.363281 2.28125 -10.71875 C 1.914062 -11.082031 1.546875 -11.597656 1.171875 -12.265625 C 0.804688 -12.941406 0.503906 -13.554688 0.265625 -14.109375 C 0.0351562 -14.660156 -0.078125 -14.9375 -0.078125 -14.9375 C -0.078125 -14.9375 0.382812 -15.019531 1.3125 -15.1875 C 2.238281 -15.351562 3.347656 -15.601562 4.640625 -15.9375 C 4.960938 -16.03125 5.285156 -16.117188 5.609375 -16.203125 C 5.578125 -17.535156 5.519531 -18.988281 5.4375 -20.5625 C 5.238281 -23.519531 5.140625 -25 5.140625 -25 Z M 21.390625 -13.125 C 22.191406 -13.34375 23.066406 -13.484375 24.015625 -13.546875 C 24.210938 -13.566406 24.414062 -13.578125 24.625 -13.578125 C 25.050781 -13.578125 25.5 -13.515625 25.96875 -13.390625 C 26.4375 -13.273438 26.847656 -13.117188 27.203125 -12.921875 C 27.359375 -12.816406 27.476562 -12.722656 27.5625 -12.640625 C 27.164062 -14.617188 26.835938 -16.566406 26.578125 -18.484375 C 26.554688 -18.640625 26.535156 -18.789062 26.515625 -18.9375 C 24.609375 -18.59375 22.804688 -18.226562 21.109375 -17.84375 C 21.128906 -17.675781 21.160156 -17.5 21.203125 -17.3125 C 21.328125 -16.3125 21.390625 -15.144531 21.390625 -13.8125 C 21.390625 -13.582031 21.390625 -13.351562 21.390625 -13.125 Z M 21.390625 -13.125 "/></g></g></g></svg>