<svg width="1039" height="750" viewBox="0 0 1039 750" fill="none" xmlns="http://www.w3.org/2000/svg">
<path d="M173.68 127.88L173.199 127.782L173.093 128.261L77.4622 557.023L77.3512 557.521L77.8507 557.622L342.248 611.331C455.526 636.082 536.472 637.846 643.44 611.33C643.444 611.33 643.448 611.329 643.452 611.328L961.015 547.988L961.512 547.889L961.406 547.394L897.065 245.265L896.962 244.783L896.478 244.879L850.059 254.129L823.493 127.223L823.389 126.728L822.895 126.838L604.317 175.428L589.197 119.608L589.071 119.143L588.602 119.252L538.621 130.865L538.234 130.955V131.352V144.723L445.987 145.416L448.795 131.064L448.889 130.587L448.415 130.48L399.661 119.485L399.177 119.376L399.064 119.859L387.034 171.227L173.68 127.88Z" fill="#151B2E" stroke="white" stroke-miterlimit="10"/>
<path d="M842.952 490.338L718.931 516.313L715.593 500.729L673.199 509.744L693.258 600.879L861.011 567.412L842.952 490.338Z" fill="#36FF62"/>
<path d="M90.5179 500.769L116.785 506.432L103.748 562.369L77.9502 557.132L90.5179 500.769Z" fill="#27304D"/>
<path d="M116.785 506.432L103.748 562.369L131.16 567.935L142.638 511.998L116.785 506.432Z" fill="#27304D"/>
<path d="M115.308 553.296L117.962 541.214L117.033 541.003C116.542 540.892 116.114 540.592 115.843 540.169C115.572 539.744 115.48 539.231 115.587 538.74L117.444 530.377C117.67 529.396 118.274 528.542 119.126 528.002C119.978 527.461 121.009 527.278 121.996 527.492L127.582 528.723C128.569 528.945 129.427 529.546 129.972 530.396C130.516 531.246 130.701 532.275 130.488 533.262L128.63 541.625C128.516 542.115 128.213 542.543 127.786 542.813C127.358 543.082 126.842 543.173 126.348 543.067L125.419 542.869L122.765 554.937C122.651 555.427 122.348 555.855 121.921 556.125C121.494 556.395 120.977 556.485 120.483 556.379L116.755 555.559C116.263 555.448 115.835 555.148 115.564 554.723C115.293 554.3 115.201 553.787 115.308 553.296Z" fill="#36FF62"/>
<path d="M125.233 526.248C125.968 526.407 126.734 526.346 127.434 526.072C128.135 525.798 128.738 525.324 129.168 524.708C129.598 524.092 129.836 523.364 129.851 522.614C129.866 521.863 129.658 521.126 129.253 520.494C128.848 519.86 128.265 519.362 127.576 519.06C126.887 518.758 126.124 518.666 125.383 518.796C124.642 518.926 123.957 519.273 123.413 519.791C122.869 520.309 122.491 520.977 122.327 521.709C122.218 522.197 122.206 522.702 122.293 523.195C122.38 523.688 122.564 524.159 122.834 524.58C123.104 525.003 123.455 525.367 123.866 525.653C124.278 525.938 124.743 526.142 125.233 526.248Z" fill="#36FF62"/>
<path d="M94.8847 548.981L96.8619 539.574L99.9003 540.222C100.15 540.276 100.407 540.28 100.658 540.234C100.909 540.188 101.148 540.093 101.362 539.953C101.576 539.814 101.759 539.634 101.902 539.424C102.046 539.213 102.145 538.975 102.196 538.726C102.222 538.529 102.222 538.328 102.196 538.131L100.842 525.401C100.752 524.599 100.411 523.846 99.8686 523.247C99.3258 522.649 98.6082 522.236 97.8171 522.066H97.5916C96.7981 521.896 95.9709 521.979 95.2278 522.305C94.4846 522.631 93.8632 523.181 93.4517 523.879L86.9367 534.902C86.8046 535.119 86.717 535.36 86.679 535.611C86.6408 535.861 86.653 536.118 86.7147 536.363C86.7764 536.61 86.8864 536.842 87.0384 537.045C87.1904 537.248 87.3814 537.419 87.6001 537.549C87.7817 537.666 87.9846 537.747 88.1973 537.787L91.2358 538.435L89.219 547.79C89.1162 548.291 89.2145 548.81 89.4923 549.239C89.7703 549.667 90.2059 549.969 90.705 550.08L92.5893 550.477C92.8377 550.531 93.0944 550.536 93.3445 550.491C93.5948 550.446 93.8335 550.352 94.047 550.213C94.2605 550.075 94.4444 549.897 94.5882 549.688C94.732 549.478 94.8327 549.243 94.8847 548.995" fill="#36FF62"/>
<path d="M98.1888 520.16C98.9354 520.319 99.7121 520.253 100.421 519.971C101.13 519.69 101.739 519.204 102.172 518.577C102.604 517.95 102.841 517.21 102.852 516.448C102.863 515.687 102.647 514.94 102.232 514.302C101.818 513.662 101.222 513.161 100.522 512.859C99.8211 512.557 99.0464 512.469 98.2958 512.607C97.545 512.743 96.852 513.1 96.304 513.629C95.7558 514.158 95.3776 514.838 95.2166 515.582C95.004 516.583 95.1974 517.625 95.7545 518.484C96.3116 519.343 97.187 519.945 98.1888 520.16Z" fill="#36FF62"/>
<path d="M367.283 495.478L436.716 511.242L431.625 535.403L361.655 520.876L367.283 495.478Z" stroke="white" stroke-miterlimit="10"/>
<path d="M617.313 495.3L547.176 509.483L552.626 535.06L623.286 520.34L617.313 495.3Z" stroke="white" stroke-miterlimit="10"/>
<path d="M838.026 199.247L777.878 212.44L861.009 567.412L960.834 547.498L896.492 245.371L849.615 254.716L838.026 199.247Z" stroke="white" stroke-miterlimit="10"/>
<path d="M207.338 176.721L353.253 207.534L332.864 308.427L185.183 277.243L207.338 176.721Z" stroke="white" stroke-miterlimit="10"/>
<path d="M185.183 283.207L330.408 314.034L307.894 420.52L160.572 388.992L185.183 283.207Z" stroke="white" stroke-miterlimit="10"/>
<path d="M754.744 181.448L760.537 207.713L636.958 235.392L630.626 207.534L754.744 181.448Z" stroke="white" stroke-miterlimit="10"/>
<path d="M382.279 194.23L375.244 225.058L483.538 248.641L489.635 216.879L382.279 194.23Z" stroke="white" stroke-miterlimit="10"/>
<path d="M415.955 258.221L385.728 408.137L431.433 413.511L434.193 420.287L457.878 423.791V414.679H453.892L459.051 400.66H529.616L535.479 414.679L530.085 414.912L530.319 423.791L554.447 421.275L558.669 415.201L599.462 408.426L572.547 258.221C572.547 258.221 494.837 280.513 415.955 258.221Z" stroke="white" stroke-miterlimit="10"/>
<path d="M770.154 254.716C768.981 255.183 693.257 271.525 693.257 271.525L721.856 404.165L800.614 387.59L770.154 254.716Z" stroke="white" stroke-miterlimit="10"/>
<path d="M686.938 272.927L646.38 281.805L674.275 415.147L716.71 405.801L686.938 272.927Z" stroke="white" stroke-miterlimit="10"/>
<path d="M842.952 490.338C839.89 491.094 718.93 516.313 718.93 516.313L715.592 500.728L623.287 520.34L614.678 481.638L830.233 436.023L842.952 490.338Z" stroke="white" stroke-miterlimit="10"/>
<path d="M141.727 490.338C144.803 491.094 265.762 516.313 265.762 516.313L269.1 500.728L361.393 520.34L370.001 481.638L154.447 436.023L141.727 490.338Z" stroke="white" stroke-miterlimit="10"/>
<path d="M440.123 168.502L391.025 157.109L399.731 120.055L447.973 130.913L440.123 168.502Z" stroke="white" stroke-miterlimit="10"/>
<path d="M588.715 119.739L598.8 156.984L548.831 169.409L541.176 130.789L588.715 119.739Z" stroke="white" stroke-miterlimit="10"/>
<path d="M376.569 497.581C376.637 497.581 370.581 522.732 370.581 522.732" stroke="white" stroke-width="0.5" stroke-miterlimit="10"/>
<path d="M387.397 500.013L381.397 525.164" stroke="white" stroke-width="0.5" stroke-miterlimit="10"/>
<path d="M398.213 502.446L392.212 527.596" stroke="white" stroke-width="0.5" stroke-miterlimit="10"/>
<path d="M409.028 504.878L403.042 530.03" stroke="white" stroke-width="0.5" stroke-miterlimit="10"/>
<path d="M423.106 508.207L417.762 532.463" stroke="white" stroke-width="0.5" stroke-miterlimit="10"/>
<path d="M433.678 510.685L428.577 534.895" stroke="white" stroke-width="0.5" stroke-miterlimit="10"/>
<path d="M609.628 497.004L615.147 522.265" stroke="white" stroke-width="0.5" stroke-miterlimit="10"/>
<path d="M598.772 499.23L604.29 524.478" stroke="white" stroke-width="0.5" stroke-miterlimit="10"/>
<path d="M587.914 501.443L593.433 526.703" stroke="white" stroke-width="0.5" stroke-miterlimit="10"/>
<path d="M577.044 503.655L582.562 528.916" stroke="white" stroke-width="0.5" stroke-miterlimit="10"/>
<path d="M566.188 505.882L571.705 531.129" stroke="white" stroke-width="0.5" stroke-miterlimit="10"/>
<path d="M555.316 508.095L560.834 533.356" stroke="white" stroke-width="0.5" stroke-miterlimit="10"/>
<path d="M141.727 490.338L137.106 510.816L143.25 512.544L131.434 567.685" stroke="white" stroke-miterlimit="10"/>
<path d="M368.498 488.4C368.498 488.4 522.924 515.214 616.182 488.4" stroke="white" stroke-miterlimit="10"/>
<path d="M398.524 519.455L400.301 509.77L406.053 510.819L405.816 512.106L401.595 511.337L401.053 514.294L404.641 514.947L404.406 516.222L400.819 515.568L400.054 519.734L398.524 519.455Z" fill="white"/>
<path d="M393.225 518.666C391.696 518.387 390.817 517.603 390.304 516.763L391.22 515.925C391.682 516.607 392.317 517.225 393.32 517.407C394.414 517.607 395.275 517.152 395.449 516.206C395.64 515.168 395.076 514.372 392.887 513.973L393.092 512.857C395.005 513.205 395.765 512.624 395.932 511.718C396.086 510.877 395.614 510.261 394.691 510.093C393.938 509.956 393.238 510.208 392.582 510.659L391.964 509.568C392.857 509.012 393.844 508.689 394.966 508.893C396.706 509.21 397.769 510.328 397.484 511.878C397.284 512.969 396.505 513.574 395.406 513.768L395.393 513.833C396.464 514.313 397.198 515.289 396.964 516.564C396.653 518.26 395.007 518.991 393.225 518.666Z" fill="white"/>
<path d="M380.049 513.286L378.728 513.586C378.134 512.159 377.326 510.831 376.33 509.649C377.796 509.173 379.183 508.482 380.444 507.597L381.425 508.571C380.767 509.085 380.037 509.5 379.257 509.801L388.156 512.374L387.774 513.671L378.877 511.099C379.368 511.772 379.761 512.513 380.042 513.297" fill="white"/>
<path d="M762.141 556.329C757.634 556.329 754.648 552.404 754.648 544.82C754.648 537.207 757.634 533.49 762.141 533.49C766.649 533.49 769.604 537.237 769.604 544.82C769.604 552.404 766.649 556.329 762.141 556.329ZM762.141 552.909C764.052 552.909 765.455 551.006 765.455 544.82C765.455 538.664 764.052 536.88 762.141 536.88C760.231 536.88 758.798 538.664 758.798 544.82C758.798 551.006 760.231 552.909 762.141 552.909ZM773.361 555.913V552.374H778.108V538.456H774.108V535.75C776.317 535.334 777.839 534.769 779.242 533.876H782.496V552.374H786.645V555.913H773.361Z" fill="#27304D"/>
<path d="M501.056 594.616H518.016V578.904H501.056V594.616ZM497.056 575.032H522.208V601.08H518.016V598.552H501.056V601.144H497.056V575.032Z" fill="white"/>
<path d="M467.392 573.688H478.464C478.464 579.736 479.328 591.416 491.104 598.36C490.272 599.032 488.704 600.696 488.032 601.688C481.408 597.688 478.016 591.64 476.256 585.912C473.856 593.08 470.016 598.392 464.448 601.72C463.744 600.92 461.952 599.352 460.96 598.616C467.616 595.256 471.424 589.08 473.184 580.664L475.136 581.016C474.912 579.8 474.784 578.648 474.688 577.56H467.392V573.688Z" fill="white"/>
</svg>
