<svg width="903" height="570" viewBox="0 0 903 570" fill="none" xmlns="http://www.w3.org/2000/svg">
<path d="M105.68 37.8801L105.2 37.7824L105.093 38.2612L9.46243 467.023L9.35149 467.521L9.8509 467.622L274.249 521.331C387.526 546.082 468.473 547.847 575.441 521.33C575.444 521.33 575.448 521.329 575.452 521.328L893.016 457.988L893.512 457.889L893.407 457.394L829.065 155.265L828.962 154.783L828.478 154.879L782.059 164.129L755.493 37.2231L755.389 36.7276L754.895 36.8375L536.317 85.4277L521.198 29.6083L521.072 29.1428L520.602 29.252L470.621 40.8654L470.234 40.9553V41.3524V54.7235L377.988 55.4161L380.796 41.0636L380.889 40.5868L380.415 40.4799L331.661 29.485L331.178 29.3759L331.065 29.8587L319.035 81.2272L105.68 37.8801Z" fill="#151B2E" stroke="white" stroke-miterlimit="10"/>
<path d="M774.952 400.338L650.931 426.313L647.593 410.729L605.199 419.744L625.258 510.879L793.011 477.412L774.952 400.338Z" fill="#36FF62"/>
<path d="M22.5182 410.769L48.7848 416.432L35.748 472.369L9.95044 467.132L22.5182 410.769Z" fill="#27304D"/>
<path d="M48.7846 416.432L35.7478 472.369L63.1595 477.935L74.6374 421.998L48.7846 416.432Z" fill="#27304D"/>
<path d="M47.3078 463.296L49.9616 451.214L49.0329 451.003C48.5413 450.892 48.1135 450.592 47.8426 450.169C47.5717 449.744 47.4796 449.231 47.5866 448.74L49.4442 440.377C49.6693 439.396 50.2734 438.542 51.1254 438.002C51.9774 437.461 53.0088 437.278 53.9954 437.492L59.5816 438.723C60.5683 438.945 61.4271 439.546 61.9714 440.396C62.5157 441.246 62.7011 442.275 62.4875 443.262L60.6298 451.625C60.5158 452.115 60.2124 452.543 59.7853 452.813C59.3582 453.082 58.8417 453.173 58.3476 453.067L57.4187 452.869L54.7649 464.937C54.6509 465.427 54.3475 465.855 53.9205 466.125C53.4934 466.395 52.9768 466.485 52.4827 466.379L48.7543 465.559C48.2626 465.448 47.8348 465.148 47.5639 464.723C47.293 464.3 47.201 463.787 47.3078 463.296Z" fill="#36FF62"/>
<path d="M57.2328 436.248C57.9679 436.407 58.734 436.346 59.4343 436.072C60.1347 435.798 60.738 435.324 61.1681 434.708C61.5982 434.092 61.8357 433.364 61.8509 432.614C61.8661 431.863 61.6581 431.126 61.2533 430.494C60.8484 429.86 60.2647 429.362 59.576 429.06C58.8873 428.758 58.1244 428.666 57.3834 428.796C56.6425 428.926 55.9568 429.273 55.4129 429.791C54.8688 430.309 54.491 430.977 54.327 431.709C54.2176 432.197 54.206 432.702 54.293 433.195C54.38 433.688 54.5637 434.159 54.8338 434.58C55.1038 435.003 55.4548 435.367 55.8665 435.653C56.2782 435.938 56.7426 436.142 57.2328 436.248Z" fill="#36FF62"/>
<path d="M26.8845 458.981L28.8616 449.574L31.9001 450.222C32.1495 450.276 32.4071 450.28 32.6579 450.234C32.9089 450.188 33.1481 450.093 33.3618 449.953C33.5754 449.814 33.7592 449.634 33.9022 449.424C34.0454 449.213 34.1452 448.975 34.1957 448.726C34.2219 448.529 34.2219 448.328 34.1957 448.131L32.8422 435.401C32.7519 434.599 32.4112 433.846 31.8684 433.247C31.3256 432.649 30.6079 432.236 29.8169 432.066H29.5914C28.7978 431.896 27.9707 431.979 27.2275 432.305C26.4843 432.631 25.8629 433.181 25.4515 433.879L18.9365 444.902C18.8044 445.119 18.7168 445.36 18.6787 445.611C18.6406 445.861 18.6527 446.118 18.7144 446.363C18.7761 446.61 18.8862 446.842 19.0382 447.045C19.1902 447.248 19.3811 447.419 19.5999 447.549C19.7815 447.666 19.9844 447.747 20.197 447.787L23.2355 448.435L21.2187 457.79C21.116 458.291 21.2142 458.81 21.4921 459.239C21.7701 459.667 22.2057 459.969 22.7048 460.08L24.589 460.477C24.8374 460.531 25.0941 460.536 25.3443 460.491C25.5945 460.446 25.8332 460.352 26.0468 460.213C26.2602 460.075 26.4442 459.897 26.5879 459.688C26.7317 459.478 26.8325 459.243 26.8845 458.995" fill="#36FF62"/>
<path d="M30.1891 430.16C30.9356 430.319 31.7124 430.253 32.4213 429.971C33.1302 429.69 33.7394 429.204 34.1721 428.577C34.6047 427.95 34.8414 427.21 34.8522 426.448C34.8629 425.687 34.6474 424.94 34.2326 424.302C33.8179 423.662 33.2226 423.161 32.522 422.859C31.8213 422.557 31.0467 422.469 30.296 422.607C29.5453 422.743 28.8522 423.1 28.3042 423.629C27.7561 424.158 27.3778 424.838 27.2169 425.582C27.0042 426.583 27.1976 427.625 27.7547 428.484C28.3118 429.343 29.1872 429.945 30.1891 430.16Z" fill="#36FF62"/>
<path d="M299.283 405.478L368.716 421.242L363.625 445.403L293.655 430.876L299.283 405.478Z" stroke="white" stroke-miterlimit="10"/>
<path d="M549.313 405.3L479.176 419.483L484.626 445.06L555.286 430.34L549.313 405.3Z" stroke="white" stroke-miterlimit="10"/>
<path d="M770.026 109.247L709.879 122.44L793.009 477.412L892.834 457.498L828.493 155.371L781.615 164.716L770.026 109.247Z" stroke="white" stroke-miterlimit="10"/>
<path d="M139.338 86.7207L285.254 117.534L264.864 218.427L117.183 187.243L139.338 86.7207Z" stroke="white" stroke-miterlimit="10"/>
<path d="M117.183 193.207L262.407 224.034L239.893 330.52L92.5715 298.992L117.183 193.207Z" stroke="white" stroke-miterlimit="10"/>
<path d="M686.744 91.4485L692.538 117.713L568.958 145.392L562.626 117.534L686.744 91.4485Z" stroke="white" stroke-miterlimit="10"/>
<path d="M314.279 104.23L307.244 135.058L415.538 158.641L421.635 126.879L314.279 104.23Z" stroke="white" stroke-miterlimit="10"/>
<path d="M347.955 168.221L317.728 318.137L363.433 323.511L366.193 330.287L389.878 333.791V324.679H385.892L391.051 310.66H461.616L467.479 324.679L462.085 324.912L462.319 333.791L486.447 331.275L490.669 325.201L531.462 318.426L504.547 168.221C504.547 168.221 426.837 190.513 347.955 168.221Z" stroke="white" stroke-miterlimit="10"/>
<path d="M702.153 164.716C700.98 165.183 625.257 181.525 625.257 181.525L653.855 314.165L732.614 297.59L702.153 164.716Z" stroke="white" stroke-miterlimit="10"/>
<path d="M618.938 182.927L578.38 191.805L606.275 325.147L648.71 315.801L618.938 182.927Z" stroke="white" stroke-miterlimit="10"/>
<path d="M774.952 400.338C771.89 401.094 650.93 426.313 650.93 426.313L647.592 410.728L555.287 430.34L546.678 391.638L762.233 346.023L774.952 400.338Z" stroke="white" stroke-miterlimit="10"/>
<path d="M73.7271 400.338C76.8035 401.094 197.762 426.313 197.762 426.313L201.1 410.728L293.393 430.34L302.001 391.638L86.4465 346.023L73.7271 400.338Z" stroke="white" stroke-miterlimit="10"/>
<path d="M372.123 78.502L323.025 67.1085L331.731 30.0554L379.973 40.9131L372.123 78.502Z" stroke="white" stroke-miterlimit="10"/>
<path d="M520.715 29.739L530.8 66.9844L480.831 79.4087L473.176 40.789L520.715 29.739Z" stroke="white" stroke-miterlimit="10"/>
<path d="M308.568 407.581C308.637 407.581 302.581 432.732 302.581 432.732" stroke="white" stroke-width="0.5" stroke-miterlimit="10"/>
<path d="M319.397 410.013L313.397 435.164" stroke="white" stroke-width="0.5" stroke-miterlimit="10"/>
<path d="M330.213 412.446L324.212 437.596" stroke="white" stroke-width="0.5" stroke-miterlimit="10"/>
<path d="M341.028 414.878L335.042 440.03" stroke="white" stroke-width="0.5" stroke-miterlimit="10"/>
<path d="M355.105 418.207L349.762 442.463" stroke="white" stroke-width="0.5" stroke-miterlimit="10"/>
<path d="M365.678 420.685L360.577 444.895" stroke="white" stroke-width="0.5" stroke-miterlimit="10"/>
<path d="M541.628 407.004L547.147 432.265" stroke="white" stroke-width="0.5" stroke-miterlimit="10"/>
<path d="M530.772 409.23L536.29 434.478" stroke="white" stroke-width="0.5" stroke-miterlimit="10"/>
<path d="M519.914 411.443L525.433 436.703" stroke="white" stroke-width="0.5" stroke-miterlimit="10"/>
<path d="M509.044 413.655L514.562 438.916" stroke="white" stroke-width="0.5" stroke-miterlimit="10"/>
<path d="M498.187 415.882L503.705 441.129" stroke="white" stroke-width="0.5" stroke-miterlimit="10"/>
<path d="M487.316 418.095L492.834 443.356" stroke="white" stroke-width="0.5" stroke-miterlimit="10"/>
<path d="M73.7272 400.338L69.1057 420.816L75.25 422.544L63.4338 477.685" stroke="white" stroke-miterlimit="10"/>
<path d="M300.498 398.4C300.498 398.4 454.924 425.214 548.182 398.4" stroke="white" stroke-miterlimit="10"/>
<path d="M330.524 429.455L332.302 419.77L338.053 420.819L337.817 422.106L333.595 421.337L333.053 424.294L336.641 424.947L336.406 426.222L332.819 425.568L332.054 429.734L330.524 429.455Z" fill="white"/>
<path d="M325.225 428.666C323.696 428.387 322.817 427.603 322.304 426.763L323.22 425.925C323.682 426.607 324.317 427.225 325.32 427.407C326.414 427.607 327.275 427.152 327.449 426.206C327.64 425.168 327.076 424.372 324.887 423.973L325.092 422.857C327.005 423.205 327.765 422.624 327.932 421.718C328.086 420.877 327.614 420.261 326.691 420.093C325.938 419.956 325.238 420.208 324.582 420.659L323.964 419.568C324.857 419.012 325.844 418.689 326.965 418.893C328.706 419.21 329.769 420.328 329.484 421.878C329.284 422.969 328.505 423.574 327.406 423.768L327.393 423.833C328.464 424.313 329.198 425.289 328.964 426.564C328.653 428.26 327.007 428.991 325.225 428.666Z" fill="white"/>
<path d="M312.049 423.286L310.728 423.586C310.134 422.159 309.326 420.831 308.33 419.649C309.796 419.173 311.183 418.482 312.444 417.597L313.425 418.571C312.767 419.085 312.037 419.5 311.257 419.801L320.156 422.374L319.774 423.671L310.877 421.099C311.368 421.772 311.761 422.513 312.042 423.297" fill="white"/>
<path d="M694.141 466.329C689.633 466.329 686.648 462.404 686.648 454.82C686.648 447.207 689.633 443.49 694.141 443.49C698.648 443.49 701.604 447.237 701.604 454.82C701.604 462.404 698.648 466.329 694.141 466.329ZM694.141 462.909C696.051 462.909 697.454 461.006 697.454 454.82C697.454 448.664 696.051 446.88 694.141 446.88C692.23 446.88 690.798 448.664 690.798 454.82C690.798 461.006 692.23 462.909 694.141 462.909ZM705.361 465.913V462.374H710.107V448.456H706.107V445.75C708.316 445.334 709.839 444.769 711.242 443.876H714.496V462.374H718.645V465.913H705.361Z" fill="#27304D"/>
<path d="M433.056 504.616H450.016V488.904H433.056V504.616ZM429.056 485.032H454.208V511.08H450.016V508.552H433.056V511.144H429.056V485.032Z" fill="white"/>
<path d="M399.392 483.688H410.464C410.464 489.736 411.328 501.416 423.104 508.36C422.272 509.032 420.704 510.696 420.032 511.688C413.408 507.688 410.016 501.64 408.256 495.912C405.856 503.08 402.016 508.392 396.448 511.72C395.744 510.92 393.952 509.352 392.96 508.616C399.616 505.256 403.424 499.08 405.184 490.664L407.136 491.016C406.912 489.8 406.784 488.648 406.688 487.56H399.392V483.688Z" fill="white"/>
</svg>
