<svg width="903" height="570" viewBox="0 0 903 570" fill="none" xmlns="http://www.w3.org/2000/svg">
<path d="M105.68 37.8801L105.2 37.7824L105.093 38.2612L9.46243 467.023L9.35149 467.521L9.8509 467.622L274.249 521.331C387.526 546.082 468.473 547.847 575.441 521.33C575.444 521.33 575.448 521.329 575.452 521.328L893.016 457.988L893.512 457.889L893.407 457.394L829.065 155.265L828.962 154.783L828.478 154.879L782.059 164.129L755.493 37.2231L755.389 36.7276L754.895 36.8375L536.317 85.4277L521.198 29.6083L521.072 29.1428L520.602 29.252L470.621 40.8654L470.234 40.9553V41.3524V54.7235L377.988 55.4161L380.796 41.0636L380.889 40.5868L380.415 40.4799L331.661 29.485L331.178 29.3759L331.065 29.8587L319.035 81.2272L105.68 37.8801Z" fill="#151B2E" stroke="white" stroke-miterlimit="10"/>
<path d="M774.952 400.338L650.931 426.313L647.593 410.729L605.199 419.744L625.258 510.879L793.011 477.412L774.952 400.338Z" fill="#36FF62"/>
<path d="M299.283 405.478L368.716 421.242L363.625 445.403L293.655 430.876L299.283 405.478Z" stroke="white" stroke-miterlimit="10"/>
<path d="M549.313 405.3L479.176 419.483L484.626 445.06L555.286 430.34L549.313 405.3Z" stroke="white" stroke-miterlimit="10"/>
<path d="M770.026 109.247L709.879 122.44L793.009 477.412L892.834 457.498L828.493 155.371L781.615 164.716L770.026 109.247Z" stroke="white" stroke-miterlimit="10"/>
<path d="M139.338 86.7207L285.254 117.534L264.864 218.427L117.183 187.243L139.338 86.7207Z" stroke="white" stroke-miterlimit="10"/>
<path d="M117.183 193.207L262.407 224.034L239.893 330.52L92.5715 298.992L117.183 193.207Z" stroke="white" stroke-miterlimit="10"/>
<path d="M686.744 91.4485L692.538 117.713L568.958 145.392L562.626 117.534L686.744 91.4485Z" stroke="white" stroke-miterlimit="10"/>
<path d="M314.279 104.23L307.244 135.058L415.538 158.641L421.635 126.879L314.279 104.23Z" stroke="white" stroke-miterlimit="10"/>
<path d="M347.955 168.221L317.728 318.137L363.433 323.511L366.193 330.287L389.878 333.791V324.679H385.892L391.051 310.66H461.616L467.479 324.679L462.085 324.912L462.319 333.791L486.447 331.275L490.669 325.201L531.462 318.426L504.547 168.221C504.547 168.221 426.837 190.513 347.955 168.221Z" stroke="white" stroke-miterlimit="10"/>
<path d="M702.153 164.716C700.98 165.183 625.257 181.525 625.257 181.525L653.855 314.165L732.614 297.59L702.153 164.716Z" stroke="white" stroke-miterlimit="10"/>
<path d="M618.938 182.927L578.38 191.805L606.275 325.147L648.71 315.801L618.938 182.927Z" stroke="white" stroke-miterlimit="10"/>
<path d="M774.952 400.338C771.89 401.094 650.93 426.313 650.93 426.313L647.592 410.728L555.287 430.34L546.678 391.638L762.233 346.023L774.952 400.338Z" stroke="white" stroke-miterlimit="10"/>
<path d="M73.7271 400.338C76.8035 401.094 197.762 426.313 197.762 426.313L201.1 410.728L293.393 430.34L302.001 391.638L86.4465 346.023L73.7271 400.338Z" stroke="white" stroke-miterlimit="10"/>
<path d="M372.123 78.502L323.025 67.1085L331.731 30.0554L379.973 40.9131L372.123 78.502Z" stroke="white" stroke-miterlimit="10"/>
<path d="M520.715 29.739L530.8 66.9844L480.831 79.4087L473.176 40.789L520.715 29.739Z" stroke="white" stroke-miterlimit="10"/>
<path d="M308.568 407.581C308.637 407.581 302.581 432.732 302.581 432.732" stroke="white" stroke-width="0.5" stroke-miterlimit="10"/>
<path d="M319.397 410.013L313.397 435.164" stroke="white" stroke-width="0.5" stroke-miterlimit="10"/>
<path d="M330.213 412.446L324.212 437.596" stroke="white" stroke-width="0.5" stroke-miterlimit="10"/>
<path d="M341.028 414.878L335.042 440.03" stroke="white" stroke-width="0.5" stroke-miterlimit="10"/>
<path d="M355.105 418.207L349.762 442.463" stroke="white" stroke-width="0.5" stroke-miterlimit="10"/>
<path d="M365.678 420.685L360.577 444.895" stroke="white" stroke-width="0.5" stroke-miterlimit="10"/>
<path d="M541.628 407.004L547.147 432.265" stroke="white" stroke-width="0.5" stroke-miterlimit="10"/>
<path d="M530.772 409.23L536.29 434.478" stroke="white" stroke-width="0.5" stroke-miterlimit="10"/>
<path d="M519.914 411.443L525.433 436.703" stroke="white" stroke-width="0.5" stroke-miterlimit="10"/>
<path d="M509.044 413.655L514.562 438.916" stroke="white" stroke-width="0.5" stroke-miterlimit="10"/>
<path d="M498.187 415.882L503.705 441.129" stroke="white" stroke-width="0.5" stroke-miterlimit="10"/>
<path d="M487.316 418.095L492.834 443.356" stroke="white" stroke-width="0.5" stroke-miterlimit="10"/>
<path d="M73.7272 400.338L69.1057 420.816L75.25 422.544L63.4338 477.685" stroke="white" stroke-miterlimit="10"/>
<path d="M300.498 398.4C300.498 398.4 454.924 425.214 548.182 398.4" stroke="white" stroke-miterlimit="10"/>
<path d="M330.524 429.455L332.302 419.77L338.053 420.819L337.817 422.106L333.595 421.337L333.053 424.294L336.641 424.947L336.406 426.222L332.819 425.568L332.054 429.734L330.524 429.455Z" fill="white"/>
<path d="M325.225 428.666C323.696 428.387 322.817 427.603 322.304 426.763L323.22 425.925C323.682 426.607 324.317 427.225 325.32 427.407C326.414 427.607 327.275 427.152 327.449 426.206C327.64 425.168 327.076 424.372 324.887 423.973L325.092 422.857C327.005 423.205 327.765 422.624 327.932 421.718C328.086 420.877 327.614 420.261 326.691 420.093C325.938 419.956 325.238 420.208 324.582 420.659L323.964 419.568C324.857 419.012 325.844 418.689 326.965 418.893C328.706 419.21 329.769 420.328 329.484 421.878C329.284 422.969 328.505 423.574 327.406 423.768L327.393 423.833C328.464 424.313 329.198 425.289 328.964 426.564C328.653 428.26 327.007 428.991 325.225 428.666Z" fill="white"/>
<path d="M312.049 423.286L310.728 423.586C310.134 422.159 309.326 420.831 308.33 419.649C309.796 419.173 311.183 418.482 312.444 417.597L313.425 418.571C312.767 419.085 312.037 419.5 311.257 419.801L320.156 422.374L319.774 423.671L310.877 421.099C311.368 421.772 311.761 422.513 312.042 423.297" fill="white"/>
<path d="M433.056 504.616H450.016V488.904H433.056V504.616ZM429.056 485.032H454.208V511.08H450.016V508.552H433.056V511.144H429.056V485.032Z" fill="white"/>
<path d="M399.392 483.688H410.464C410.464 489.736 411.328 501.416 423.104 508.36C422.272 509.032 420.704 510.696 420.032 511.688C413.408 507.688 410.016 501.64 408.256 495.912C405.856 503.08 402.016 508.392 396.448 511.72C395.744 510.92 393.952 509.352 392.96 508.616C399.616 505.256 403.424 499.08 405.184 490.664L407.136 491.016C406.912 489.8 406.784 488.648 406.688 487.56H399.392V483.688Z" fill="white"/>
<g filter="url(#filter0_d_482_3436)">
<path d="M702.32 465.336C701.072 465.336 699.968 464.984 699.008 464.28C698.064 463.576 697.32 462.528 696.776 461.136C696.248 459.744 695.984 458.024 695.984 455.976C695.984 453.928 696.248 452.224 696.776 450.864C697.32 449.504 698.064 448.488 699.008 447.816C699.968 447.144 701.072 446.808 702.32 446.808C703.584 446.808 704.688 447.152 705.632 447.84C706.576 448.512 707.312 449.528 707.84 450.888C708.368 452.232 708.632 453.928 708.632 455.976C708.632 458.024 708.368 459.744 707.84 461.136C707.312 462.528 706.576 463.576 705.632 464.28C704.688 464.984 703.584 465.336 702.32 465.336ZM702.32 462.024C702.752 462.024 703.136 461.864 703.472 461.544C703.824 461.208 704.096 460.608 704.288 459.744C704.496 458.864 704.6 457.608 704.6 455.976C704.6 454.344 704.496 453.104 704.288 452.256C704.096 451.408 703.824 450.832 703.472 450.528C703.136 450.224 702.752 450.072 702.32 450.072C701.904 450.072 701.52 450.224 701.168 450.528C700.816 450.832 700.536 451.408 700.328 452.256C700.12 453.104 700.016 454.344 700.016 455.976C700.016 457.608 700.12 458.864 700.328 459.744C700.536 460.608 700.816 461.208 701.168 461.544C701.52 461.864 701.904 462.024 702.32 462.024Z" fill="white"/>
</g>
<defs>
<filter id="filter0_d_482_3436" x="687.984" y="438.808" width="28.6482" height="34.5278" filterUnits="userSpaceOnUse" color-interpolation-filters="sRGB">
<feFlood flood-opacity="0" result="BackgroundImageFix"/>
<feColorMatrix in="SourceAlpha" type="matrix" values="0 0 0 0 0 0 0 0 0 0 0 0 0 0 0 0 0 0 127 0" result="hardAlpha"/>
<feOffset/>
<feGaussianBlur stdDeviation="4"/>
<feComposite in2="hardAlpha" operator="out"/>
<feColorMatrix type="matrix" values="0 0 0 0 0.0823529 0 0 0 0 0.105882 0 0 0 0 0.180392 0 0 0 1 0"/>
<feBlend mode="normal" in2="BackgroundImageFix" result="effect1_dropShadow_482_3436"/>
<feBlend mode="normal" in="SourceGraphic" in2="effect1_dropShadow_482_3436" result="shape"/>
</filter>
</defs>
</svg>
